<?xml version="1.0" standalone="no"?>
<!DOCTYPE svg PUBLIC "-//W3C//DTD SVG 20010904//EN"
 "http://www.w3.org/TR/2001/REC-SVG-20010904/DTD/svg10.dtd">
<svg version="1.0" xmlns="http://www.w3.org/2000/svg"
 width="720.000000pt" height="720.000000pt" viewBox="0 0 720.000000 720.000000"
 preserveAspectRatio="xMidYMid meet">
<metadata>
Created by potrace 1.14, written by Peter Selinger 2001-2017
</metadata>
<g transform="translate(0.000000,720.000000) scale(0.100000,-0.100000)"
fill="#000000" stroke="none">
<path d="M0 5997 l0 -1204 30 5 c18 3 30 0 30 -7 0 -6 -13 -11 -29 -11 l-29 0
-1 -510 c0 -281 4 -508 8 -505 5 3 12 -3 15 -12 4 -9 1 -20 -6 -24 -8 -5 -13
-53 -14 -159 -2 -129 -1 -151 12 -146 18 7 18 -8 -1 -24 -21 -17 -19 -28 7
-33 l23 -4 -22 -2 c-23 -1 -23 -3 -23 -125 0 -68 3 -138 6 -155 6 -29 10 -32
33 -26 14 4 30 13 34 21 13 24 29 4 22 -27 -5 -21 -2 -31 9 -35 18 -7 21 -30
6 -39 -6 -4 -16 6 -23 22 -9 22 -19 28 -42 28 -22 0 -30 -4 -29 -17 1 -10 -2
-18 -7 -18 -5 0 -9 -25 -9 -55 0 -60 10 -70 28 -29 9 18 9 31 2 45 -15 27 19
41 34 14 6 -10 21 -27 33 -38 13 -11 23 -28 23 -37 0 -22 54 -19 58 3 3 16 -7
21 -35 18 -18 -2 -16 40 2 63 19 26 19 46 -1 46 -11 0 -14 8 -12 28 3 31 33
38 81 20 41 -16 43 -4 5 25 -40 31 -72 38 -74 17 -2 -32 -5 -33 -27 -14 -12
11 -29 20 -37 19 -8 0 -18 6 -22 15 -14 31 -8 40 27 40 39 0 46 14 15 30 -16
9 -20 8 -20 -6 0 -34 -12 -4 -15 36 -3 33 0 40 11 36 9 -3 14 1 14 11 0 9 -3
13 -6 10 -10 -9 -46 12 -39 24 4 5 15 9 26 9 22 0 25 19 7 39 -8 9 -8 11 -2 8
7 -4 15 1 18 10 6 15 9 15 16 3 5 -8 6 -18 3 -23 -3 -5 0 -7 8 -5 9 3 13 16
11 34 -4 35 -7 38 -24 28 -7 -5 -22 -10 -33 -11 -20 -3 -20 -2 1 15 11 10 20
28 19 40 -2 29 11 38 18 13 6 -26 47 -48 47 -26 0 8 -7 15 -15 15 -9 0 -15 9
-15 24 0 29 -25 40 -67 30 -24 -6 -26 -5 -16 8 10 11 10 17 1 26 -18 18 0 28
23 14 20 -13 39 -9 39 8 0 5 -6 7 -14 4 -7 -3 -20 2 -29 10 -9 9 -22 16 -29
16 -7 0 -1 10 14 21 34 25 38 59 7 59 -18 0 -19 -3 -9 -15 13 -15 5 -39 -11
-30 -12 8 -12 82 1 105 8 15 6 24 -10 40 -24 24 -26 48 -5 56 8 4 15 11 15 18
0 24 18 38 39 31 21 -6 21 -8 -16 -40 -21 -18 -34 -37 -30 -41 4 -5 13 -2 18
6 9 12 10 11 5 -4 -4 -10 -1 -25 6 -33 7 -8 14 -25 15 -36 2 -12 8 -26 14 -32
7 -6 9 -6 8 0 -2 6 2 20 9 33 12 20 10 23 -13 32 -35 13 -24 28 16 22 30 -4
32 -3 27 22 -3 14 -1 26 3 26 5 0 9 5 9 10 0 6 -7 10 -15 10 -8 0 -15 5 -15
10 0 6 4 10 9 10 6 0 13 -4 16 -10 11 -17 37 -11 42 10 3 11 14 20 25 20 10 0
17 -4 14 -8 -8 -13 11 -35 33 -39 13 -2 24 4 28 13 7 18 -15 36 -34 29 -7 -2
-13 0 -13 4 0 5 6 11 12 14 7 2 0 4 -16 4 -25 0 -52 21 -41 31 10 10 105 -11
105 -23 0 -19 40 -6 41 14 1 9 2 36 3 60 1 25 8 47 14 49 7 2 12 -1 12 -7 0
-6 7 -11 16 -11 12 0 15 7 12 25 -3 13 -1 22 3 19 5 -3 9 0 9 6 0 6 -13 13
-29 16 -20 4 -28 11 -24 20 3 8 0 14 -6 14 -6 0 -11 -9 -11 -20 0 -11 -4 -20
-8 -20 -5 0 -6 -14 -4 -31 3 -21 1 -30 -6 -25 -7 4 -8 -3 -2 -23 10 -36 -3
-51 -45 -51 -33 0 -75 31 -75 54 0 17 27 29 43 19 7 -3 4 2 -5 13 -11 13 -16
30 -13 47 4 19 1 27 -9 27 -9 0 -12 -7 -9 -18 4 -15 -2 -19 -29 -20 -29 -1
-36 3 -45 28 -6 17 -8 30 -3 30 5 0 10 -5 12 -11 4 -11 38 -2 38 11 0 24 -21
60 -32 54 -7 -4 -8 -3 -4 5 4 6 16 9 26 6 11 -3 30 1 43 10 23 14 26 14 41 0
9 -9 20 -13 26 -10 14 9 12 26 -2 23 -7 -1 -23 3 -35 10 -12 7 -28 10 -35 7
-17 -6 -45 11 -35 22 5 4 12 1 16 -6 7 -11 10 -11 17 2 11 19 48 26 50 10 1
-7 2 -17 3 -22 0 -5 17 -12 36 -15 19 -4 35 -13 35 -20 0 -8 9 -16 21 -19 12
-3 18 -10 15 -15 -6 -9 62 -28 70 -19 11 11 -10 38 -27 34 -19 -5 -32 15 -23
37 4 10 -2 12 -20 9 -25 -5 -36 10 -17 22 6 3 9 24 9 48 l-1 42 -13 -30 c-7
-16 -13 -38 -14 -47 0 -23 -30 -24 -30 -1 0 9 7 24 16 34 15 16 14 17 -5 12
-12 -3 -21 -9 -21 -14 0 -5 -7 -9 -15 -9 -8 0 -15 5 -15 10 0 6 -11 8 -25 4
-22 -5 -25 -3 -25 18 0 22 -4 25 -32 24 -25 -1 -33 -5 -32 -18 2 -21 -5 -22
-29 -4 -18 14 -18 15 0 25 15 8 16 13 6 30 -15 24 -1 37 17 16 16 -19 50 -20
50 -1 0 7 -6 19 -14 25 -8 6 -16 21 -19 31 -8 29 19 25 40 -6 l17 -26 17 21
c10 13 24 19 33 15 22 -8 20 -21 -4 -36 -24 -15 -26 -37 -6 -64 14 -18 15 -18
22 0 4 11 2 22 -7 27 -12 8 -12 10 1 8 40 -4 51 1 45 21 -4 11 -2 20 4 20 6 0
11 7 11 15 0 8 -4 15 -10 15 -5 0 -10 6 -10 14 0 8 -6 17 -13 19 -7 4 -6 6 4
6 9 1 19 -8 22 -19 3 -11 12 -20 21 -20 9 0 16 -7 16 -15 0 -8 7 -15 15 -15
25 0 17 17 -31 65 -52 50 -63 54 -89 25 -10 -11 -23 -17 -29 -13 -6 3 -5 0 2
-8 17 -18 15 -30 -5 -22 -11 4 -14 3 -9 -5 5 -8 2 -10 -9 -6 -17 7 -14 13 30
62 l20 24 -26 -7 c-16 -4 -30 -2 -33 4 -7 12 11 14 76 11 22 -1 44 5 57 17 15
12 38 18 74 18 45 0 52 3 53 20 0 11 -7 28 -17 38 -17 18 -17 18 -24 -2 -6
-19 -14 -21 -71 -19 -65 2 -69 4 -58 32 4 12 10 13 18 7 8 -7 21 -5 41 5 15 8
36 12 45 9 9 -3 23 1 30 10 10 13 9 15 -9 15 -11 0 -21 5 -21 10 0 6 3 9 7 8
8 -3 13 5 13 23 0 5 -4 8 -9 4 -5 -3 -12 -1 -16 4 -3 6 3 15 14 20 27 15 50
-12 33 -39 -8 -14 -8 -21 -1 -26 16 -9 28 15 30 56 1 19 1 38 0 43 -2 15 18 6
22 -10 4 -16 5 -16 6 0 1 11 -7 21 -19 24 -15 4 -18 11 -14 28 5 22 4 23 -30
15 -29 -6 -36 -5 -36 7 0 9 8 13 23 11 15 -2 25 4 32 20 10 23 35 30 35 9 0
-23 40 -39 81 -32 57 10 48 24 -12 18 -34 -3 -49 -1 -45 6 4 5 -3 15 -14 21
-23 13 -27 30 -5 30 8 0 15 7 15 16 0 9 9 18 20 21 11 3 20 11 20 19 0 24 23
27 40 4 10 -13 22 -20 29 -16 6 4 16 4 23 0 8 -5 6 -10 -8 -15 -17 -7 -17 -8
-1 -8 10 -1 21 9 26 21 7 20 9 19 13 -14 2 -21 0 -40 -4 -42 -5 -3 -3 -3 4 -2
7 1 14 18 16 37 5 55 22 59 22 6 0 -26 4 -47 9 -47 5 0 9 -13 9 -30 -1 -25 -4
-28 -19 -20 -9 6 -20 15 -22 22 -3 8 -6 6 -6 -4 -1 -10 -5 -18 -11 -18 -5 0
-10 -10 -10 -21 0 -18 3 -19 14 -10 11 10 20 10 38 0 14 -8 18 -14 10 -17 -28
-9 -10 -24 22 -18 24 5 37 2 47 -10 10 -12 23 -14 50 -10 25 4 39 2 42 -7 4
-9 6 -9 6 1 1 7 -9 16 -21 21 -13 5 -32 18 -44 29 -11 10 -30 25 -42 31 -12 6
-22 18 -22 26 0 23 38 18 45 -5 5 -16 13 -20 35 -16 39 6 56 16 41 26 -18 11
4 60 28 60 10 0 24 7 31 15 24 29 35 16 36 -45 1 -50 -1 -60 -17 -65 -15 -5
-17 -10 -9 -25 16 -29 12 -54 -10 -68 -12 -7 -20 -8 -20 -2 0 5 5 10 10 10 18
0 11 45 -10 63 -11 9 -30 17 -43 16 -20 -1 -20 -1 5 -10 31 -12 43 -48 25 -81
-11 -21 -47 -28 -47 -9 0 7 -66 8 -80 1 -3 -1 -17 -1 -32 0 -16 1 -28 -3 -28
-10 0 -17 31 -24 51 -12 32 21 76 15 82 -10 4 -13 1 -26 -6 -30 -8 -5 -7 -8 6
-8 9 0 26 9 37 20 11 11 20 17 20 14 0 -4 7 -1 15 6 12 10 19 10 27 2 9 -9 8
-12 -5 -12 -9 0 -21 -9 -27 -19 -12 -24 9 -40 45 -34 21 5 23 11 30 126 4 67
9 139 10 160 1 20 -2 37 -6 37 -5 0 -9 5 -9 10 0 6 8 10 18 10 16 0 19 9 21
68 2 101 12 182 21 182 4 0 11 33 15 73 4 39 9 81 11 92 2 11 6 45 10 77 6 49
4 57 -12 61 -17 4 -17 5 -1 6 19 1 22 21 18 109 -2 31 1 52 7 52 6 0 9 17 7
42 -3 23 0 47 6 54 7 9 6 19 -3 33 -7 11 -9 24 -5 28 5 4 12 1 16 -6 6 -9 11
-10 15 -2 4 6 3 11 -3 11 -5 0 -9 25 -9 55 0 32 5 52 10 49 6 -4 9 10 8 32 -2
22 0 46 3 54 9 25 10 166 1 181 -2 4 2 11 9 16 18 10 30 70 15 75 -8 3 -7 15
2 42 11 33 10 56 -6 108 -3 11 2 18 17 20 21 3 24 13 31 94 1 6 12 9 25 6 16
-3 23 -11 23 -28 0 -13 -5 -24 -11 -24 -8 0 -8 -4 0 -14 9 -11 9 -15 -1 -19
-10 -3 -9 -9 4 -23 14 -16 16 -31 11 -77 -4 -35 -2 -62 5 -70 9 -10 6 -23 -9
-51 -25 -47 -39 -197 -20 -220 8 -10 9 -15 1 -18 -6 -2 -14 -40 -17 -88 -7
-111 -9 -134 -13 -140 -1 -3 -4 -25 -5 -50 -2 -25 -6 -90 -11 -145 -4 -55 -8
-112 -8 -127 -1 -16 -4 -28 -7 -28 -3 0 -5 -24 -4 -52 1 -29 -2 -71 -7 -93 -5
-21 -11 -72 -13 -112 -2 -40 -7 -78 -10 -83 -4 -6 -4 -24 0 -39 3 -16 1 -47
-4 -69 -13 -47 -8 -66 22 -80 21 -10 21 -11 2 -11 -12 -1 -26 4 -33 11 -10 10
-12 5 -11 -22 0 -19 -5 -87 -11 -150 -6 -63 -13 -147 -15 -187 -2 -39 -6 -81
-10 -92 -5 -16 -2 -21 12 -22 16 0 15 -2 -4 -16 -31 -21 -31 -47 0 -37 12 4
25 12 29 18 4 6 8 -1 8 -15 0 -15 -7 -29 -15 -32 -16 -7 -17 -67 -1 -67 5 0
17 -7 27 -16 10 -9 25 -14 35 -12 16 3 17 4 1 20 -21 21 -21 28 -2 28 8 0 15
5 15 10 0 6 -6 9 -12 8 -8 -2 -12 5 -10 16 2 11 -1 15 -7 11 -6 -3 -11 -12
-11 -20 0 -7 -7 -15 -15 -19 -17 -6 -21 19 -5 29 6 3 10 17 10 31 0 13 5 24
11 24 5 0 7 -4 4 -10 -4 -6 5 -10 19 -10 17 0 26 6 26 16 0 11 -6 14 -20 9
-26 -8 -40 23 -17 37 10 5 17 16 17 25 0 14 3 14 18 -3 10 -10 21 -28 25 -38
13 -33 19 -10 8 30 -6 20 -9 40 -7 43 2 3 5 26 7 51 2 33 -1 44 -10 42 -9 -2
-11 3 -7 15 5 12 0 23 -16 35 l-23 17 23 -6 c13 -3 28 -15 32 -27 7 -16 9 -10
11 29 2 47 2 66 -4 155 -2 19 -6 41 -11 48 -5 8 -4 18 3 25 6 6 11 28 11 48 0
21 7 44 15 53 9 9 11 17 5 21 -14 9 -13 26 2 23 15 -4 19 84 4 95 -7 6 -5 7 6
4 17 -6 33 18 23 34 -3 5 -1 17 5 28 7 14 7 22 -1 27 -8 5 -7 9 1 14 12 8 23
119 25 243 0 26 2 47 5 47 3 0 6 15 7 33 5 113 12 189 17 194 3 4 6 38 6 78 0
39 5 76 10 81 6 6 7 27 1 56 -6 37 -5 50 7 62 11 11 15 39 15 110 0 78 3 98
16 106 9 5 11 10 5 10 -15 0 -10 133 4 138 6 2 8 11 5 21 -3 10 0 22 6 25 7 5
7 15 1 32 -13 34 -2 75 27 97 15 12 22 25 18 37 -3 10 0 20 9 23 9 4 12 14 9
27 -4 16 0 23 16 27 11 3 21 10 21 16 0 6 6 3 13 -7 7 -9 22 -18 34 -19 28 -2
37 -22 16 -38 -55 -46 -86 -209 -98 -509 -4 -91 -10 -187 -14 -215 -12 -72
-14 -178 -3 -171 5 3 12 53 15 112 4 59 12 113 18 121 8 9 9 21 2 36 -5 12 -6
54 -3 92 7 75 11 50 13 -72 0 -40 4 -73 9 -73 4 0 8 6 8 14 0 7 10 17 23 21
13 4 17 8 10 12 -21 8 -15 25 20 54 30 27 31 28 9 29 -21 0 -23 4 -20 45 4 48
15 67 27 47 15 -24 36 21 36 78 l0 55 35 -1 c35 -2 35 -1 9 10 -32 13 -33 26
-6 45 17 12 21 12 32 -2 10 -13 14 -11 30 21 11 20 20 38 20 39 1 2 16 -1 33
-6 21 -6 34 -6 38 1 4 6 10 5 15 -3 6 -10 9 -6 9 12 0 34 10 43 26 21 12 -16
13 -16 19 1 4 9 16 17 26 17 12 0 16 -5 13 -15 -9 -22 22 -19 46 5 12 12 18
25 15 30 -3 5 0 12 6 16 8 5 10 -2 7 -24 -2 -17 -1 -29 4 -26 4 3 8 12 8 20 0
20 20 17 21 -3 1 -10 5 -1 10 21 8 32 6 44 -12 72 -11 19 -28 41 -36 49 -8 9
-26 37 -40 63 -14 26 -28 49 -33 52 -7 5 -35 64 -74 156 -16 38 -22 116 -12
154 12 47 20 60 33 60 8 0 13 6 11 13 -6 17 -228 23 -228 5 0 -9 -3 -9 -12 0
-7 7 -27 12 -45 12 -26 0 -33 -4 -33 -20 0 -25 -11 -25 -32 0 -17 19 -33 20
-778 20 l-760 0 0 -1203z m1430 1183 c0 -5 -7 -10 -15 -10 -8 0 -15 5 -15 10
0 6 7 10 15 10 8 0 15 -4 15 -10z m297 -292 c-3 -8 -6 -5 -6 6 -1 11 2 17 5
13 3 -3 4 -12 1 -19z m50 -34 c-3 -3 -12 -4 -19 -1 -8 3 -5 6 6 6 11 1 17 -2
13 -5z m-177 -21 c-1 -18 -18 -35 -24 -24 -4 6 -4 16 -1 21 7 12 25 13 25 3z
m-307 -53 c-6 -22 -11 -24 -33 -10 -13 8 -12 10 3 10 9 0 17 7 17 16 0 8 4 13
9 10 5 -3 7 -15 4 -26z m329 6 c-2 -10 4 -16 15 -17 14 0 12 -3 -6 -10 -26
-10 -61 -3 -61 13 0 5 9 12 20 15 11 3 17 10 13 15 -3 6 0 8 8 6 8 -3 13 -12
11 -22z m-332 -46 c0 -5 -5 -10 -11 -10 -5 0 -7 5 -4 10 3 6 8 10 11 10 2 0 4
-4 4 -10z m310 -435 c0 -8 -2 -15 -4 -15 -2 0 -6 7 -10 15 -3 8 -1 15 4 15 6
0 10 -7 10 -15z m-640 -555 c0 -5 -4 -10 -10 -10 -5 0 -10 5 -10 10 0 6 5 10
10 10 6 0 10 -4 10 -10z m-263 -62 c-3 -8 -6 -5 -6 6 -1 11 2 17 5 13 3 -3 4
-12 1 -19z m200 -14 c-3 -3 -12 -4 -19 -1 -8 3 -5 6 6 6 11 1 17 -2 13 -5z
m-220 -130 c-3 -3 -12 -4 -19 -1 -8 3 -5 6 6 6 11 1 17 -2 13 -5z m261 -36
c-6 -18 -28 -21 -28 -4 0 9 7 16 16 16 9 0 14 -5 12 -12z m-218 -8 c0 -5 -7
-10 -15 -10 -8 0 -15 5 -15 10 0 6 7 10 15 10 8 0 15 -4 15 -10z m-225 -40
c-5 -8 -11 -8 -17 -2 -6 6 -7 16 -3 22 5 8 11 8 17 2 6 -6 7 -16 3 -22z m316
20 c5 0 -1 -10 -13 -22 -14 -14 -23 -18 -26 -10 -2 7 -11 12 -20 12 -15 1 -14
3 3 16 11 8 26 12 33 9 8 -3 18 -5 23 -5z m55 -26 c-3 -7 0 -16 6 -20 7 -4 6
-9 -3 -15 -23 -14 -27 -11 -27 25 0 26 4 33 15 29 8 -3 12 -12 9 -19z m431
-36 c-3 -8 -6 -5 -6 6 -1 11 2 17 5 13 3 -3 4 -12 1 -19z m-372 3 c7 -12 -12
-24 -25 -16 -11 7 -4 25 10 25 5 0 11 -4 15 -9z m55 -16 c-7 -9 -15 -13 -17
-11 -7 7 7 26 19 26 6 0 6 -6 -2 -15z m-682 -14 c3 -8 -1 -12 -9 -9 -7 2 -15
10 -17 17 -3 8 1 12 9 9 7 -2 15 -10 17 -17z m412 -11 c0 -11 7 -20 15 -20 8
0 15 -5 15 -11 0 -6 -7 -8 -16 -5 -9 3 -20 6 -25 6 -5 0 -9 11 -9 25 0 14 5
25 10 25 6 0 10 -9 10 -20z m-105 -30 c3 -5 1 -10 -4 -10 -6 0 -11 5 -11 10 0
6 2 10 4 10 3 0 8 -4 11 -10z m102 -58 c-9 -12 -13 -10 -18 11 -4 14 -10 31
-15 39 -4 7 4 2 18 -12 21 -19 24 -28 15 -38z m-67 18 c0 -5 -7 -10 -16 -10
-8 0 -12 -4 -9 -10 3 -5 0 -10 -8 -10 -10 0 -13 7 -10 20 5 20 43 29 43 10z
m-80 -26 c0 -8 -4 -12 -10 -9 -5 3 -10 13 -10 21 0 8 5 12 10 9 6 -3 10 -13
10 -21z m-170 6 c0 -5 -7 -10 -16 -10 -8 0 -12 5 -9 10 3 6 10 10 16 10 5 0 9
-4 9 -10z m395 0 c-3 -5 -10 -10 -16 -10 -5 0 -9 5 -9 10 0 6 7 10 16 10 8 0
12 -4 9 -10z m165 -20 c0 -5 -7 -10 -15 -10 -8 0 -15 5 -15 10 0 6 7 10 15 10
8 0 15 -4 15 -10z m58 -15 c-3 -3 -9 2 -12 12 -6 14 -5 15 5 6 7 -7 10 -15 7
-18z m-616 0 c0 -5 -5 -11 -11 -13 -6 -2 -11 4 -11 13 0 9 5 15 11 13 6 -2 11
-8 11 -13z m78 -22 c0 -15 2 -16 10 -3 5 8 12 11 15 8 4 -4 4 -12 0 -18 -5 -8
-27 -9 -64 -1 -7 2 22 31 30 31 5 0 9 -8 9 -17z m150 8 c0 -5 -7 -17 -16 -25
-12 -12 -20 -13 -35 -6 -34 19 -22 40 23 40 15 0 28 -4 28 -9z m55 -2 c10 -15
-1 -23 -20 -15 -9 3 -13 10 -10 16 8 13 22 13 30 -1z m125 1 c0 -5 -4 -10 -9
-10 -6 0 -13 5 -16 10 -3 6 1 10 9 10 9 0 16 -4 16 -10z m-102 -55 c-3 -3 -13
-2 -22 1 -14 5 -15 9 -4 15 13 8 36 -6 26 -16z m-578 5 c0 -5 -4 -10 -10 -10
-5 0 -10 5 -10 10 0 6 5 10 10 10 6 0 10 -4 10 -10z m460 4 c0 -11 -28 -33
-34 -27 -13 13 -5 33 14 33 11 0 20 -3 20 -6z m199 -6 c11 -10 14 -10 18 0 8
20 22 14 16 -7 -3 -12 -17 -23 -34 -26 -16 -4 -29 -13 -29 -21 0 -11 -9 -14
-32 -12 -21 2 -33 8 -33 18 0 11 8 14 29 12 26 -4 28 -2 22 22 -5 21 -3 26 12
26 10 0 24 -6 31 -12z m-375 -4 c22 -8 20 -33 -1 -29 -10 2 -24 4 -32 4 -11 1
-11 4 -1 16 14 17 13 17 34 9z m466 -14 c0 -5 -4 -10 -10 -10 -5 0 -10 5 -10
10 0 6 5 10 10 10 6 0 10 -4 10 -10z m-336 -15 c3 -8 1 -15 -4 -15 -6 0 -10 7
-10 15 0 8 2 15 4 15 2 0 6 -7 10 -15z m43 -7 c-3 -8 -6 -5 -6 6 -1 11 2 17 5
13 3 -3 4 -12 1 -19z m-341 -5 c19 -26 17 -31 -10 -26 -17 4 -22 10 -19 24 7
24 12 24 29 2z m394 2 c0 -9 6 -12 16 -8 12 4 15 2 12 -8 -3 -8 -9 -14 -14
-14 -5 0 -15 -4 -21 -8 -7 -4 -23 -3 -35 3 -18 8 -16 5 7 -14 19 -17 33 -22
40 -16 7 6 15 7 18 3 7 -6 10 -43 5 -43 -2 0 -21 7 -43 15 -22 8 -55 14 -72
15 -29 0 -33 3 -33 26 0 23 3 25 24 20 14 -3 27 -2 31 4 3 5 12 7 20 3 10 -3
15 2 15 16 0 12 6 21 15 21 8 0 15 -7 15 -15z m278 9 c34 -10 26 -26 -10 -20
-18 2 -34 5 -36 5 -6 2 9 21 16 21 4 0 17 -3 30 -6z m-68 -28 c0 -15 -48 -28
-56 -15 -9 14 3 24 30 27 16 1 26 -3 26 -12z m-435 -6 c3 -5 1 -10 -4 -10 -6
0 -11 5 -11 10 0 6 2 10 4 10 3 0 8 -4 11 -10z m55 -9 c13 -26 13 -51 -1 -51
-6 0 -9 7 -5 15 3 8 -1 21 -9 29 -17 17 -19 26 -5 26 5 0 14 -9 20 -19z m424
-7 c9 -3 16 -15 16 -25 0 -16 -5 -18 -27 -13 -34 8 -58 27 -28 22 12 -2 19 2
18 10 -3 14 -1 14 21 6z m-514 -14 c0 -5 11 -10 25 -10 27 0 28 -1 19 -24 -5
-14 -10 -13 -35 5 -29 20 -38 39 -19 39 6 0 10 -4 10 -10z m330 0 c0 -5 -7
-10 -16 -10 -8 0 -12 5 -9 10 3 6 10 10 16 10 5 0 9 -4 9 -10z m107 -7 c-4 -3
-2 -12 3 -18 8 -9 6 -14 -5 -19 -8 -3 -15 -13 -15 -21 0 -9 -4 -13 -10 -10
-17 11 -12 63 8 68 9 3 19 5 21 6 2 0 1 -2 -2 -6z m-707 -12 c0 -12 -20 -25
-27 -18 -7 7 6 27 18 27 5 0 9 -4 9 -9z m392 -41 c-8 -21 -23 -30 -51 -30 -17
0 -22 4 -17 16 3 9 6 18 6 21 0 3 7 0 16 -8 13 -10 17 -10 25 2 5 8 9 23 10
34 l0 20 8 -20 c5 -11 6 -27 3 -35z m-182 20 c0 -5 -5 -10 -11 -10 -5 0 -7 5
-4 10 3 6 8 10 11 10 2 0 4 -4 4 -10z m430 0 c0 -5 -4 -10 -10 -10 -5 0 -10 5
-10 10 0 6 5 10 10 10 6 0 10 -4 10 -10z m230 0 c0 -15 -26 -23 -41 -14 -9 5
-7 10 7 15 27 11 34 10 34 -1z m-83 -11 c14 -14 -16 -70 -36 -67 -25 5 -23 28
3 38 32 12 34 30 4 23 -19 -4 -20 -3 -8 6 19 14 23 14 37 0z m323 -10 c0 -5
-4 -9 -10 -9 -5 0 -10 7 -10 16 0 8 5 12 10 9 6 -3 10 -10 10 -16z m-395 -59
c3 -6 2 -10 -4 -10 -6 0 -8 -7 -5 -15 4 -8 2 -15 -3 -15 -12 0 -53 38 -53 50
0 22 50 15 65 -10z m-365 -10 c0 -5 -7 -10 -16 -10 -8 0 -12 5 -9 10 3 6 10
10 16 10 5 0 9 -4 9 -10z m-130 -10 c0 -5 -2 -10 -4 -10 -3 0 -8 5 -11 10 -3
6 -1 10 4 10 6 0 11 -4 11 -10z m-248 -20 c4 -57 2 -74 -10 -78 -9 -3 -11 6
-8 32 2 20 0 38 -5 42 -11 6 -2 24 12 24 5 0 10 -9 11 -20z m338 10 c0 -5 -5
-10 -11 -10 -5 0 -7 5 -4 10 3 6 8 10 11 10 2 0 4 -4 4 -10z m-170 -10 c0 -5
-4 -10 -10 -10 -5 0 -10 5 -10 10 0 6 5 10 10 10 6 0 10 -4 10 -10z m-53 -36
c-9 -9 -28 6 -21 18 4 6 10 6 17 -1 6 -6 8 -13 4 -17z m195 14 c-7 -7 -12 -20
-12 -30 0 -10 -6 -18 -13 -18 -16 0 -37 20 -37 35 0 5 4 4 8 -3 6 -9 13 -8 28
7 10 11 23 20 29 20 5 1 4 -4 -3 -11z m-142 -28 c7 -13 21 -20 42 -20 26 0 29
-2 18 -15 -9 -11 -16 -13 -23 -6 -7 7 -15 7 -23 0 -10 -8 -17 -3 -28 20 -19
35 -19 41 -6 41 5 0 14 -9 20 -20z m970 -20 c0 -13 -5 -18 -15 -14 -8 4 -15
12 -15 20 0 8 7 14 15 14 8 0 15 -9 15 -20z m-59 -13 c-13 -13 -26 -3 -16 12
3 6 11 8 17 5 6 -4 6 -10 -1 -17z m-1031 -17 c0 -10 -4 -22 -10 -25 -6 -4 -10
7 -10 25 0 18 4 29 10 25 6 -3 10 -15 10 -25z m197 -25 c8 -22 -6 -33 -17 -15
-13 20 -12 30 0 30 6 0 13 -7 17 -15z m53 -20 c0 -8 -4 -15 -9 -15 -5 0 -14 7
-21 15 -10 13 -9 15 9 15 12 0 21 -6 21 -15z m-260 -11 c0 -8 -5 -12 -10 -9
-6 4 -8 11 -5 16 9 14 15 11 15 -7z m218 -29 c-4 -20 -1 -25 16 -26 16 -1 17
-2 4 -6 -9 -2 -27 1 -40 8 -13 8 -26 12 -30 11 -5 -1 -8 2 -8 6 0 6 32 23 59
31 2 1 1 -10 -1 -24z m-68 -37 c0 -5 -7 -8 -15 -8 -15 0 -20 21 -8 33 7 7 23
-11 23 -25z m-157 15 c-7 -2 -19 -2 -25 0 -7 3 -2 5 12 5 14 0 19 -2 13 -5z
m-33 -75 c0 -5 -7 -8 -15 -8 -15 0 -20 21 -8 33 7 7 23 -11 23 -25z m1120 11
c0 -5 -4 -9 -10 -9 -5 0 -10 7 -10 16 0 8 5 12 10 9 6 -3 10 -10 10 -16z
m-1020 3 c0 -5 -7 -17 -16 -28 -12 -14 -14 -15 -11 -3 3 9 0 22 -6 28 -8 8 -5
11 11 11 12 0 22 -4 22 -8z m47 -18 c-3 -3 -12 -4 -19 -1 -8 3 -5 6 6 6 11 1
17 -2 13 -5z m-57 -54 c0 -5 -5 -10 -11 -10 -5 0 -7 5 -4 10 3 6 8 10 11 10 2
0 4 -4 4 -10z m995 0 c-9 -14 -44 -18 -48 -6 -3 8 5 13 24 13 15 0 26 -4 24
-7z m-1105 -21 c0 -7 9 -9 24 -5 27 7 35 -5 28 -41 -5 -24 -22 -32 -22 -10 0
6 -11 17 -25 24 -17 8 -25 8 -25 0 0 -6 -3 -8 -6 -4 -8 8 5 47 17 47 5 0 9 -5
9 -11z m1070 -29 c0 -5 -2 -10 -4 -10 -3 0 -8 5 -11 10 -3 6 -1 10 4 10 6 0
11 -4 11 -10z m-1033 -117 c-3 -3 -10 -2 -16 2 -7 4 -7 10 2 20 10 11 13 11
15 -2 2 -8 1 -17 -1 -20z m-10 -49 c-2 -2 -12 -1 -22 2 -17 7 -17 8 1 21 17
12 19 12 22 -2 2 -9 2 -19 -1 -21z m-27 -20 c0 -8 -5 -12 -10 -9 -6 4 -8 11
-5 16 9 14 15 11 15 -7z m142 -36 c-9 -9 -15 -9 -24 0 -9 9 -7 12 12 12 19 0
21 -3 12 -12z m-102 -57 c0 -5 9 -13 21 -16 21 -7 22 -26 1 -33 -7 -2 -12 3
-12 11 0 17 -21 27 -56 27 -14 0 -22 4 -19 10 8 13 65 13 65 1z m-23 -108
c-10 -10 -17 -12 -21 -4 -4 6 -2 11 3 11 6 0 11 8 11 18 0 28 15 37 18 12 2
-13 -3 -29 -11 -37z m8 -83 c-3 -5 -13 -10 -21 -10 -8 0 -14 5 -14 10 0 6 9
10 21 10 11 0 17 -4 14 -10z m88 -16 c9 -4 17 -10 17 -15 0 -5 -8 -10 -17 -10
-17 -1 -17 -2 0 -6 26 -7 20 -21 -12 -28 -31 -7 -61 -42 -61 -71 0 -16 -15
-11 -15 4 0 4 -4 12 -8 19 -4 7 1 14 13 18 12 4 26 19 33 33 6 15 16 31 22 35
7 6 6 10 -2 14 -7 2 -13 9 -13 15 0 5 6 7 13 4 6 -3 20 -9 30 -12z m-53 -16
c0 -5 -4 -8 -10 -8 -5 0 -19 -9 -30 -20 -17 -17 -21 -18 -26 -5 -4 8 -2 21 4
28 11 13 62 17 62 5z m74 -79 c-8 -13 -24 -1 -24 18 0 13 3 13 15 3 8 -7 12
-16 9 -21z m-124 -39 c0 -5 -2 -10 -4 -10 -3 0 -8 5 -11 10 -3 6 -1 10 4 10 6
0 11 -4 11 -10z m-25 -715 c0 -10 -5 -20 -11 -22 -7 -2 -12 7 -11 22 0 15 4
24 11 22 6 -2 11 -12 11 -22z m-3 -80 c-2 -15 0 -25 7 -25 6 0 11 -7 11 -15 0
-8 -4 -15 -9 -15 -9 0 -12 8 -27 63 -3 10 0 17 9 17 10 0 13 -8 9 -25z"/>
<path d="M1221 6614 c0 -11 3 -14 6 -6 3 7 2 16 -1 19 -3 4 -6 -2 -5 -13z"/>
<path d="M1430 6599 c0 -5 5 -7 10 -4 6 3 10 8 10 11 0 2 -4 4 -10 4 -5 0 -10
-5 -10 -11z"/>
<path d="M2062 6510 c0 -14 2 -19 5 -12 2 6 2 18 0 25 -3 6 -5 1 -5 -13z"/>
<path d="M1910 6506 c0 -8 5 -18 10 -21 6 -3 10 1 10 9 0 8 -4 18 -10 21 -5 3
-10 -1 -10 -9z"/>
<path d="M1510 5980 c5 -18 12 -35 16 -39 9 -9 -7 53 -17 63 -5 5 -4 -5 1 -24z"/>
<path d="M1450 5785 c0 -8 5 -15 10 -15 6 0 10 7 10 15 0 8 -4 15 -10 15 -5 0
-10 -7 -10 -15z"/>
<path d="M1452 5740 c0 -14 2 -19 5 -12 2 6 2 18 0 25 -3 6 -5 1 -5 -13z"/>
<path d="M1436 5593 c-15 -203 -24 -309 -31 -333 -6 -24 -6 -24 10 3 10 18 17
61 20 124 3 54 7 116 10 138 10 69 13 165 5 165 -4 0 -10 -44 -14 -97z"/>
<path d="M4338 5286 c-32 -13 -58 -21 -58 -19 0 3 -6 1 -12 -5 -7 -5 -29 -13
-48 -17 -19 -3 -43 -9 -52 -11 -14 -4 -18 1 -18 18 0 18 -5 23 -23 23 -13 -1
-28 -4 -34 -8 -6 -4 -13 2 -16 14 -5 19 -7 19 -44 3 -44 -19 -70 -25 -213 -53
-58 -11 -123 -19 -145 -17 -22 1 -60 3 -84 4 -42 2 -43 3 -27 20 16 18 15 19
-31 10 -27 -4 -66 -11 -88 -15 -22 -3 -46 -12 -53 -20 -7 -7 -24 -13 -37 -13
-13 0 -26 -4 -29 -9 -3 -4 -20 -12 -38 -16 -29 -6 -30 -8 -13 -15 11 -4 25 -5
30 -2 6 3 5 -1 -2 -8 -8 -9 -22 -10 -50 -3 -42 10 -49 30 -18 47 11 6 22 14
25 17 3 4 15 9 28 13 12 4 22 13 22 20 0 21 -100 -1 -130 -28 -41 -37 -95 -66
-124 -66 -16 0 -25 -4 -21 -10 3 -5 14 -10 24 -10 29 0 63 -36 59 -62 -2 -17
-14 -25 -50 -36 -41 -11 -46 -16 -45 -39 2 -25 -24 -50 -73 -69 -111 -43 -153
-65 -216 -111 -46 -34 -74 -61 -74 -73 0 -10 -4 -20 -8 -22 -17 -6 -79 -104
-94 -148 -9 -25 -21 -78 -27 -118 -7 -48 -20 -87 -36 -110 -21 -30 -23 -38
-10 -40 20 -5 19 -31 -3 -84 -11 -24 -22 -61 -26 -83 -11 -57 -71 -195 -86
-195 -4 0 -24 -37 -46 -82 -33 -71 -39 -95 -42 -165 -3 -55 0 -83 7 -83 6 0 9
13 7 30 -4 38 7 39 21 3 l11 -28 1 27 c1 34 37 118 51 118 9 0 15 -50 10 -95
-1 -11 -10 -36 -20 -55 -21 -40 -66 -172 -75 -223 -4 -21 -3 -37 4 -41 6 -4
11 -31 12 -59 0 -29 3 -46 6 -39 2 6 11 12 19 12 8 0 17 13 21 30 3 17 11 30
19 30 7 0 14 12 16 27 4 39 28 42 28 4 0 -17 -4 -31 -9 -31 -5 0 -11 -12 -14
-27 -3 -16 -11 -41 -17 -58 -12 -30 -21 -285 -11 -285 3 0 6 -28 7 -63 0 -38
7 -74 18 -92 9 -16 16 -23 15 -15 -1 8 -1 30 0 49 1 29 3 32 16 21 9 -8 15
-30 15 -57 0 -38 -3 -44 -16 -39 -12 5 -10 -3 8 -26 14 -18 29 -44 33 -58 4
-14 23 -40 41 -58 36 -35 37 -37 25 -67 -5 -12 -3 -31 6 -48 8 -16 13 -38 11
-50 -1 -12 1 -27 5 -33 4 -7 0 -14 -8 -18 -8 -3 -15 -14 -15 -24 0 -11 -7 -25
-15 -32 -20 -17 -20 -54 0 -46 12 4 13 -3 8 -39 -6 -44 -5 -44 23 -42 24 2 33
11 54 53 14 28 30 49 37 47 6 -2 14 5 18 16 10 32 23 25 35 -20 16 -58 -2
-104 -60 -157 -27 -23 -73 -75 -104 -116 -31 -41 -64 -83 -73 -92 -10 -9 -18
-22 -19 -28 0 -6 -2 -19 -2 -28 -3 -25 -28 -23 -35 2 -7 26 -47 27 -54 1 -2
-10 -15 -23 -28 -29 -13 -6 -28 -26 -35 -46 -8 -25 -18 -36 -31 -36 -10 0 -19
5 -19 10 0 7 -6 7 -20 0 -11 -6 -20 -18 -20 -27 0 -15 -2 -15 -13 2 -15 20
-39 13 -31 -9 3 -8 0 -17 -7 -22 -7 -4 -15 -2 -17 4 -5 17 -32 15 -38 -3 -4
-8 -16 -15 -28 -15 -11 0 -29 -7 -40 -15 -18 -14 -18 -15 7 -26 23 -11 24 -13
10 -27 -14 -14 -17 -14 -29 3 -8 10 -17 15 -21 11 -4 -4 -1 -11 6 -15 9 -6 10
-11 2 -15 -6 -4 -11 -14 -11 -22 0 -13 2 -13 16 1 13 12 19 13 24 5 14 -22 -1
-50 -26 -50 -33 0 -40 -18 -11 -29 30 -12 41 -27 31 -43 -5 -8 -11 -6 -19 6
-11 14 -14 15 -25 1 -7 -8 -16 -15 -21 -15 -14 0 -11 87 4 93 7 2 13 17 15 31
l2 27 -26 -24 c-21 -20 -26 -33 -25 -73 0 -27 5 -63 10 -81 7 -24 6 -33 -5
-37 -7 -3 -16 -17 -20 -31 -4 -16 -13 -25 -26 -25 -10 0 -17 -4 -13 -9 3 -5
-6 -18 -19 -29 -19 -14 -22 -22 -13 -31 8 -8 8 -11 -2 -11 -7 0 -9 -5 -6 -11
4 -6 -2 -19 -13 -29 -11 -10 -22 -25 -24 -32 -7 -19 -59 7 -65 32 -6 21 -34
23 -61 6 -7 -4 -18 -3 -25 2 -7 5 -19 9 -27 9 -8 0 -27 4 -42 8 -35 9 -50 -19
-22 -39 17 -13 17 -14 -4 -20 -14 -5 -19 -12 -15 -23 5 -13 2 -15 -11 -10 -14
6 -16 3 -10 -16 4 -12 11 -24 15 -25 5 -2 9 -8 9 -13 0 -14 -28 -11 -33 4 -4
7 -6 8 -6 1 -1 -6 6 -17 14 -24 16 -13 20 -46 7 -54 -4 -3 -26 -1 -48 4 -49
12 -80 4 -64 -15 9 -11 6 -16 -15 -21 -18 -4 -30 -2 -36 7 -7 12 -9 12 -9 0 0
-8 -6 -11 -15 -7 -10 4 -19 -2 -24 -17 -8 -20 -10 -20 -16 -4 -8 20 -47 24
-39 3 6 -15 -43 -29 -51 -16 -3 5 -14 6 -25 3 -11 -3 -20 0 -20 6 0 6 -5 11
-11 11 -8 0 -8 -4 0 -14 14 -17 -2 -32 -21 -20 -7 4 -8 3 -4 -4 5 -8 0 -12
-13 -12 -11 0 -23 4 -26 10 -3 5 1 10 9 10 9 0 16 4 16 9 0 24 -52 0 -61 -28
-6 -17 -59 -24 -59 -8 0 8 -4 7 -9 -2 -5 -8 -16 -11 -25 -8 -9 4 -16 1 -16 -5
0 -7 -4 -7 -14 1 -10 8 -16 9 -21 1 -3 -5 -28 -10 -55 -10 -26 0 -50 -5 -52
-10 -2 -6 -25 -13 -51 -15 -37 -3 -47 0 -47 12 0 9 -6 13 -14 10 -8 -3 -30 -1
-50 5 -27 9 -42 8 -61 0 -14 -7 -36 -17 -50 -24 -14 -6 -25 -17 -25 -24 0 -8
-8 -10 -22 -6 -20 5 -18 8 19 41 22 20 53 47 69 60 25 20 29 31 31 84 2 34 7
65 12 70 6 6 4 19 -6 34 -15 22 -14 25 2 37 10 7 15 18 11 24 -3 6 0 39 8 73
11 46 12 67 4 76 -7 9 -7 13 1 13 6 0 11 5 11 10 0 6 -6 10 -14 8 -8 -2 -15 2
-15 7 -1 6 4 11 9 11 6 1 12 2 15 3 3 0 -1 11 -9 24 -8 12 -18 39 -21 60 -7
36 -25 52 -25 22 0 -8 -5 -15 -11 -15 -5 0 -7 5 -3 11 3 6 1 15 -6 19 -6 4
-14 35 -16 69 -4 51 -2 61 11 61 9 0 13 5 9 11 -3 6 -15 9 -25 6 -10 -3 -21
-2 -24 3 -2 4 10 11 28 15 l32 7 -30 11 c-21 8 -30 18 -27 30 2 9 8 17 13 17
5 0 8 -5 6 -11 -1 -6 8 -15 19 -19 17 -7 26 -3 43 21 12 16 19 33 17 38 -3 5
5 8 19 7 28 -1 31 -6 13 -25 -11 -11 -10 -14 0 -18 6 -3 10 -9 7 -13 -3 -5
-12 -7 -19 -4 -16 6 -40 -21 -31 -36 3 -6 12 -7 18 -4 7 4 9 4 5 -1 -4 -4 -3
-14 3 -22 9 -10 6 -19 -15 -38 -14 -13 -26 -31 -26 -41 0 -10 -5 -14 -15 -11
-12 5 -12 2 -3 -18 6 -13 19 -26 29 -28 14 -4 19 -14 19 -37 0 -17 4 -29 10
-25 5 3 7 12 3 20 -3 9 1 22 8 31 11 14 11 18 -4 29 -25 18 -21 36 6 30 23 -6
24 -4 25 62 0 37 3 95 7 128 3 33 7 95 10 138 2 44 6 81 9 85 10 9 7 42 -4 42
-5 0 -10 5 -10 11 0 8 4 8 14 0 10 -8 16 -9 21 -2 3 6 -9 17 -27 26 -18 8 -26
13 -16 11 25 -7 49 16 42 42 -4 12 -10 22 -15 22 -5 0 -6 -7 -3 -15 4 -8 1
-15 -6 -15 -6 0 -9 4 -5 9 7 12 -24 43 -36 36 -14 -9 -11 -25 5 -25 9 0 12 -7
9 -20 -4 -13 -14 -20 -30 -20 -23 0 -25 3 -19 30 4 22 1 32 -10 37 -22 8 -27
-2 -14 -27 14 -27 6 -52 -15 -44 -10 4 -13 13 -10 25 4 13 1 19 -9 19 -9 0
-16 8 -16 17 0 14 -3 14 -12 5 -10 -10 -10 -15 1 -21 7 -5 10 -14 7 -20 -4 -6
2 -27 14 -45 20 -34 20 -34 0 -29 -11 3 -20 12 -20 19 0 8 -5 14 -10 14 -6 0
-8 11 -4 28 7 24 6 26 -9 13 -11 -9 -17 -10 -17 -2 0 6 -3 10 -7 10 -5 -1 -22
2 -40 6 -21 5 -30 12 -26 21 3 8 -3 17 -13 21 -11 4 -25 15 -32 25 -17 24 -32
23 -32 -2 0 -11 8 -23 17 -27 44 -15 52 -53 12 -53 -27 0 -24 -26 4 -34 36 -9
47 -7 41 9 -9 23 12 18 29 -8 16 -25 7 -48 -24 -59 -11 -4 -15 -15 -11 -36 3
-23 -2 -34 -24 -51 -24 -19 -29 -20 -36 -6 -13 22 -27 19 -21 -5 3 -11 9 -20
15 -20 5 0 3 -6 -4 -14 -9 -9 -15 -10 -20 -3 -7 12 -68 -10 -68 -24 0 -5 19
-9 43 -10 l42 -1 -40 -9 c-27 -7 -41 -6 -43 1 -5 14 -32 12 -29 -2 1 -7 9 -16
17 -21 10 -5 7 -6 -8 -3 -24 5 -46 -24 -24 -32 17 -5 15 -29 -3 -36 -10 -3
-15 1 -15 13 0 36 -11 53 -26 40 -11 -9 -14 -9 -14 0 0 6 11 16 25 21 29 11
30 14 9 35 -9 9 -14 19 -10 22 3 4 13 -2 20 -13 14 -19 15 -19 38 4 14 12 30
22 37 22 8 0 11 6 7 15 -3 8 -1 15 5 15 18 0 5 45 -14 48 -11 2 -27 12 -38 23
-23 23 -26 48 -4 29 12 -10 24 -10 55 -1 47 14 53 30 10 25 -18 -2 -36 3 -46
14 -10 9 -22 18 -28 18 -6 1 -15 2 -21 3 -5 1 -4 5 2 9 10 7 16 21 22 61 1 3
6 0 13 -7 18 -18 38 -14 38 8 0 15 7 20 25 20 15 0 25 6 25 15 0 8 -6 12 -15
9 -9 -4 -16 3 -21 21 -7 26 -8 27 -63 20 -31 -4 -58 -9 -60 -11 -10 -9 11 -17
49 -18 22 0 40 -5 40 -11 0 -5 5 -3 11 5 8 11 9 7 5 -19 -4 -19 -8 -36 -10
-39 -8 -8 -55 33 -56 48 0 12 -4 10 -15 -4 -19 -25 -19 -40 0 -33 12 5 12 2 3
-19 l-12 -25 -17 34 c-22 43 -44 61 -65 53 -22 -9 -11 -32 14 -28 24 4 34 -9
22 -28 -7 -11 -13 -12 -35 -2 -21 10 -31 10 -41 1 -11 -9 -14 -7 -14 10 0 12
7 24 15 27 8 4 15 10 15 16 0 5 6 16 14 24 8 7 12 23 9 35 -5 19 -3 20 31 14
59 -11 71 -11 68 3 -1 8 5 12 15 10 10 -2 27 5 38 14 19 18 20 18 26 -1 8 -20
27 -36 35 -28 3 2 -2 12 -11 21 -15 15 -15 17 -1 22 9 3 16 12 16 20 0 18 -10
18 -24 -1 -10 -13 -14 -14 -30 -2 -14 10 -16 18 -9 33 8 14 6 24 -8 38 -17 17
-19 17 -25 2 -7 -17 -34 -23 -34 -6 0 5 7 13 16 18 13 7 14 11 4 17 -13 8 -52
-33 -44 -46 2 -4 -2 -10 -8 -13 -7 -3 2 -3 19 0 27 4 33 2 33 -11 0 -15 2 -16
16 -4 15 12 16 10 9 -21 -9 -43 -14 -48 -25 -30 -9 13 -10 13 -11 0 0 -9 -5
-6 -11 8 -7 13 -24 26 -39 29 -22 4 -28 11 -26 27 2 16 -3 21 -23 21 -18 0
-26 6 -28 23 -3 16 2 22 17 22 11 0 24 -8 30 -17 7 -14 13 -15 21 -6 9 8 7 14
-11 24 -13 7 -27 12 -31 11 -5 -1 -8 6 -8 17 0 10 9 21 20 24 28 7 25 27 -5
27 -14 0 -25 5 -25 10 0 6 9 10 20 10 11 0 20 5 20 10 0 6 10 10 22 10 17 0
19 3 10 12 -9 9 -15 9 -24 0 -18 -18 -58 -15 -58 4 0 9 -9 27 -20 41 -24 31
-26 53 -4 53 10 0 14 -6 10 -15 -4 -10 1 -15 14 -15 21 0 60 28 60 43 0 5 -6
4 -13 -2 -8 -6 -16 -9 -18 -7 -2 2 -21 6 -42 9 l-37 6 0 -140 c0 -104 3 -139
13 -139 8 0 7 -4 -3 -10 -11 -7 -11 -10 -2 -10 10 0 10 -5 1 -21 -8 -16 -8
-23 1 -29 8 -5 9 -13 3 -26 -6 -11 -11 -63 -12 -116 -1 -83 1 -97 14 -92 10 4
15 0 15 -10 0 -9 -7 -19 -15 -22 -16 -6 -19 -33 -9 -71 4 -13 11 -20 20 -16 8
3 14 0 14 -5 0 -6 -9 -14 -20 -17 -17 -5 -20 -14 -18 -49 3 -39 5 -42 28 -38
24 5 24 4 7 -15 -9 -11 -17 -25 -17 -31 0 -7 -4 -12 -10 -12 -5 0 -10 -9 -10
-20 0 -13 5 -18 15 -14 9 4 15 0 15 -10 0 -9 -6 -16 -13 -16 -10 0 -13 -32
-14 -134 -2 -131 -1 -135 20 -139 l22 -4 -22 -2 -23 -1 0 -750 0 -750 1415 0
c1253 0 1414 2 1409 15 -4 8 -10 15 -15 15 -10 0 -34 50 -30 64 1 5 -6 17 -15
27 -9 10 -20 33 -24 51 -6 26 -8 28 -9 9 -1 -19 -4 -21 -15 -11 -12 9 -13 17
-4 36 10 21 8 27 -11 40 -14 10 -20 22 -16 34 4 11 0 22 -10 28 -9 5 -16 12
-15 16 3 12 -12 71 -28 106 -18 40 -23 63 -24 103 -1 16 -6 27 -14 27 -16 0
-19 16 -4 25 7 4 3 16 -8 33 -15 22 -16 32 -8 55 7 18 7 31 1 35 -10 7 -17 32
-19 67 -1 29 28 25 32 -4 2 -13 12 -26 23 -28 10 -3 19 -12 19 -19 0 -13 12
-18 33 -15 4 0 7 -6 7 -14 0 -8 5 -15 11 -15 6 0 8 7 5 16 -3 9 -6 20 -6 26 0
5 -6 8 -12 6 -7 -3 -19 7 -26 21 -9 17 -10 27 -3 29 14 5 14 42 0 42 -5 0 -7
5 -4 10 12 20 35 -11 35 -46 0 -18 4 -35 9 -39 9 -5 18 -32 52 -145 7 -25 27
-66 45 -92 29 -42 74 -161 74 -194 0 -18 46 -166 77 -247 l26 -67 859 0 c752
0 858 2 858 15 0 8 5 15 10 15 6 0 10 -7 10 -15 0 -23 47 -19 53 5 3 11 1 22
-3 25 -5 3 -11 -3 -13 -12 -4 -14 -5 -13 -6 5 -1 18 4 22 29 22 17 0 30 5 30
10 0 6 -9 10 -20 10 -26 0 -25 7 3 32 15 13 18 21 10 24 -20 8 -15 24 6 24 10
0 21 -7 25 -15 7 -19 26 -20 26 -1 0 8 8 17 18 20 9 2 4 5 -13 4 -56 0 -65 2
-65 18 0 14 -2 14 -16 3 -14 -12 -16 -11 -13 6 2 10 15 22 29 25 24 6 24 6 5
18 -11 6 -14 12 -7 12 6 0 12 7 12 15 0 10 10 15 28 15 21 0 32 7 41 26 10 24
10 26 -6 20 -14 -5 -13 -2 4 13 14 12 18 22 12 28 -6 6 -4 15 7 24 10 8 15 9
11 3 -13 -22 62 -41 75 -20 5 7 8 4 8 -8 0 -11 3 -17 6 -14 8 9 -7 99 -16 93
-4 -2 -15 4 -24 14 -16 18 -15 19 24 35 29 11 40 21 38 34 -2 9 3 16 10 15 7
-2 12 8 12 28 0 17 4 28 10 24 6 -4 10 7 10 25 0 20 -4 29 -11 24 -8 -5 -8 -1
0 14 6 11 11 30 11 41 0 11 9 22 20 26 11 3 20 9 21 13 0 4 2 21 2 39 1 17 5
35 10 39 4 4 7 20 7 36 0 15 5 28 10 28 6 0 10 14 10 31 0 18 4 28 10 24 7 -4
8 7 4 33 -4 27 0 58 12 94 12 37 18 83 18 153 0 126 -8 228 -20 246 -15 24
-33 82 -28 91 3 4 15 8 27 8 20 1 20 2 4 11 -9 6 -15 14 -12 20 4 5 1 9 -5 9
-6 0 -8 5 -5 10 4 6 12 4 22 -5 18 -19 26 -15 17 9 -3 9 -15 16 -25 16 -10 0
-20 3 -20 8 -6 35 -5 59 2 68 6 8 -1 23 -21 44 -23 24 -28 36 -20 49 6 12 5
22 -2 29 -9 9 -6 12 15 12 14 0 30 -8 36 -17 5 -10 12 -15 15 -12 8 7 -44 69
-58 69 -6 0 -17 9 -24 20 -8 13 -23 20 -44 20 -25 0 -29 -3 -20 -12 21 -21 13
-30 -21 -24 -18 3 -37 3 -41 -1 -3 -4 -25 -8 -48 -9 -45 -2 -108 -32 -108 -50
0 -7 -4 -14 -10 -16 -5 -1 -12 -21 -15 -43 -6 -38 -5 -41 27 -59 109 -63 196
-160 272 -301 48 -89 67 -162 60 -228 -3 -29 -6 -61 -6 -72 0 -11 -6 -41 -13
-66 -7 -26 -9 -52 -5 -60 9 -16 -1 -41 -16 -40 -5 0 -8 -24 -7 -54 2 -41 -1
-55 -12 -55 -7 0 -15 6 -18 13 -2 6 -8 9 -12 5 -5 -5 0 -17 10 -28 20 -23 11
-28 -11 -6 -16 17 -19 56 -4 56 6 0 2 15 -8 34 -13 23 -18 52 -17 90 2 53 -6
71 -19 44 -3 -7 -4 8 -2 34 2 26 0 45 -5 43 -4 -3 -10 -1 -14 4 -3 5 2 14 11
19 15 9 15 10 -5 17 -18 6 -20 9 -9 22 10 13 9 18 -10 34 -17 13 -21 24 -16
43 5 22 3 26 -15 26 -17 0 -21 6 -21 30 0 17 5 30 10 30 6 0 -1 17 -14 37 -17
25 -23 44 -20 60 5 17 2 23 -10 23 -10 0 -19 11 -23 31 -4 22 -8 27 -14 17 -6
-8 -9 1 -9 27 0 36 -19 91 -20 57 0 -7 -5 -10 -10 -7 -8 5 -8 11 0 20 7 9 8
15 1 19 -6 4 -7 14 -4 22 4 12 1 15 -13 12 -15 -2 -21 -18 -30 -71 -6 -37 -9
-79 -8 -95 2 -15 1 -34 -3 -42 -13 -33 -14 -90 -1 -90 15 0 119 -96 143 -133
37 -58 69 -303 43 -334 -5 -7 -11 -27 -13 -45 -5 -50 -16 -88 -25 -83 -12 8
-20 -37 -13 -77 6 -38 -11 -55 -20 -20 -3 11 -5 8 -6 -9 -1 -18 -8 -28 -22
-32 -18 -5 -20 -11 -14 -36 6 -30 -8 -45 -18 -18 -3 6 -6 2 -6 -10 -1 -13 -7
-23 -15 -23 -18 0 -30 -31 -15 -40 17 -11 -7 -23 -30 -15 -16 5 -19 1 -16 -21
2 -19 -3 -28 -16 -31 -11 -3 -19 -11 -19 -17 0 -7 -7 -13 -15 -13 -18 0 -20
14 -2 20 7 3 2 9 -13 15 -16 7 -19 11 -9 11 18 1 35 31 18 31 -5 0 -4 6 3 14
7 8 15 14 18 14 31 -1 46 16 47 53 1 22 -2 51 -7 65 -8 19 -6 28 9 41 11 9 17
22 14 28 -2 7 0 16 6 20 7 3 11 -3 12 -17 1 -25 17 33 23 88 2 18 9 42 16 54
6 12 9 28 6 35 -3 8 -1 17 3 20 5 3 5 22 1 42 -5 22 -5 40 0 43 5 3 5 34 0 75
-5 39 -11 92 -14 120 -3 32 -11 54 -23 63 -10 7 -18 22 -18 34 0 14 -7 22 -22
24 -24 4 -31 -14 -52 -117 -4 -24 -18 -68 -30 -96 -11 -29 -18 -53 -15 -53 3
0 -4 -12 -15 -26 -12 -15 -21 -35 -21 -45 0 -11 -6 -18 -12 -16 -8 1 -13 -8
-12 -21 0 -12 -3 -22 -8 -22 -4 0 -8 4 -8 10 0 5 -10 -1 -23 -13 -12 -12 -18
-25 -13 -28 13 -10 -82 -95 -123 -110 -18 -7 -21 -12 -12 -23 9 -11 6 -16 -16
-24 -15 -5 -37 -13 -47 -18 -15 -6 -18 -4 -13 9 7 18 -39 33 -73 22 -14 -4
-20 -2 -20 9 0 10 6 13 15 10 10 -4 15 0 15 11 0 11 5 15 15 11 23 -9 18 8
-13 37 -30 29 -57 35 -66 15 -3 -7 -3 -3 0 10 5 22 -11 32 -18 10 -3 -7 -12
-9 -22 -5 -9 4 -15 11 -11 16 5 10 -2 11 -58 12 -19 1 -27 5 -23 14 3 8 -5 16
-20 19 -27 7 -28 13 -14 52 8 21 8 29 -2 36 -10 6 -10 10 2 18 10 6 11 10 3
10 -7 0 -13 4 -13 10 0 5 8 6 17 3 12 -5 15 -2 10 10 -3 8 -8 33 -11 54 -3 21
-3 30 0 20 9 -29 29 -13 30 23 0 19 5 35 12 38 7 2 12 10 12 17 0 7 7 15 15
19 10 4 14 13 10 28 -5 19 0 26 26 37 26 11 30 18 26 39 -6 31 19 73 39 65 9
-3 14 2 14 15 0 12 5 24 10 27 6 3 10 16 10 28 1 28 34 69 52 62 20 -8 38 38
23 64 -6 12 -14 19 -18 15 -3 -3 -24 -8 -47 -9 -43 -4 -75 17 -66 41 3 7 1 16
-4 19 -15 9 -12 35 4 35 22 0 13 25 -21 56 -24 22 -29 34 -23 49 15 35 11 55
-12 64 -23 9 -23 9 5 16 15 4 27 13 27 20 0 7 10 15 22 18 24 7 17 22 -10 22
-12 0 -18 11 -22 40 -5 36 -6 38 -17 20 -9 -15 -13 -16 -14 -5 -1 8 -1 19 0
23 1 4 -5 15 -14 23 -19 20 -19 33 1 41 9 3 12 9 7 12 -5 3 -17 23 -27 44 -13
28 -15 42 -7 51 6 8 8 21 5 30 -5 12 0 19 15 23 24 6 28 28 6 37 -21 8 -19 24
6 31 15 5 18 10 9 20 -6 8 -17 13 -23 11 -7 -1 -9 -1 -4 1 4 3 7 16 7 30 0 17
4 23 14 20 8 -3 16 2 19 14 3 12 14 19 29 20 22 0 22 1 3 9 -19 9 -19 9 3 16
25 7 30 32 7 40 -19 8 -20 24 -1 24 8 0 16 6 19 13 7 18 88 23 177 11 46 -7
85 -37 92 -71 2 -12 11 -17 25 -15 23 3 39 -13 23 -23 -13 -8 -13 -71 1 -97 8
-16 8 -22 -2 -29 -11 -6 -11 -11 -2 -20 9 -9 8 -17 -3 -34 -14 -22 -16 -77 -2
-69 5 3 11 -1 14 -10 4 -11 11 -12 35 -4 16 5 29 14 29 19 0 5 7 9 15 9 9 0
19 8 22 17 11 28 36 53 55 53 9 0 20 5 23 10 3 6 -1 10 -9 10 -23 0 -20 17 4
23 11 3 20 9 19 14 -2 7 12 46 31 83 4 8 18 18 31 21 16 5 18 7 7 8 -24 1 -23
28 2 36 17 5 19 15 18 69 -1 34 1 66 4 72 3 5 2 35 -1 67 -8 61 -5 70 8 35 7
-18 9 -11 9 30 0 39 -4 52 -15 52 -8 0 -11 5 -8 10 4 6 11 7 17 4 6 -4 9 -1 6
7 -3 8 -13 14 -24 14 -12 0 -18 7 -16 17 1 8 -4 18 -13 22 -8 3 -15 12 -15 20
0 8 -6 16 -12 19 -7 2 -9 8 -5 13 4 5 12 2 17 -6 7 -11 11 -11 24 -1 17 14 22
41 7 41 -5 0 -11 -7 -15 -15 -13 -35 -56 21 -48 63 2 6 -6 12 -18 12 -24 0
-27 17 -3 22 12 2 18 14 19 36 2 37 19 62 43 62 10 0 35 16 57 35 44 39 33 45
-26 15 -42 -21 -90 -27 -90 -10 0 6 -11 10 -25 10 -16 0 -25 6 -25 15 0 10
-11 15 -32 16 -18 1 -25 3 -15 6 9 2 17 9 17 14 0 6 -5 7 -11 3 -8 -5 -10 4
-7 30 3 32 1 36 -18 36 -16 0 -23 -8 -27 -27 -3 -16 0 -31 6 -35 14 -8 18 -78
6 -78 -5 0 -9 15 -9 34 0 19 -7 39 -17 47 -16 14 -20 14 -39 -2 -14 -12 -56
45 -48 65 4 9 1 16 -6 16 -9 0 -11 -13 -5 -52 5 -29 8 -63 8 -76 -1 -18 8 -25
46 -37 l46 -15 -45 5 c-92 12 -260 119 -260 165 0 9 -5 21 -11 27 -15 15 -8
54 12 66 11 7 27 4 55 -8 82 -36 89 -42 86 -77 -1 -18 -7 -34 -12 -36 -6 -2
-10 -10 -10 -19 0 -11 7 -9 28 9 16 13 25 26 20 29 -13 9 1 57 19 63 9 4 22 1
29 -5 11 -9 19 -8 33 5 16 15 22 15 40 4 26 -16 27 -53 4 -67 -13 -7 -15 -13
-7 -21 8 -8 16 -4 28 15 10 16 23 24 32 21 8 -3 14 -1 14 4 0 5 -9 12 -21 15
-36 12 -14 30 36 31 40 1 50 4 57 23 7 20 5 22 -20 20 -48 -4 -73 1 -67 11 4
6 14 8 24 5 13 -4 17 1 16 22 0 24 4 28 24 25 13 -1 30 3 37 9 7 6 18 8 25 4
10 -7 28 10 29 26 0 12 -44 18 -51 7 -5 -7 -18 -3 -40 12 -18 13 -43 25 -56
26 -40 4 -82 27 -87 49 -10 35 -7 47 9 41 8 -3 15 -1 15 4 0 5 -24 16 -54 25
-44 13 -53 19 -49 34 8 30 -31 63 -65 54 -24 -6 -26 -5 -13 11 8 9 11 19 7 23
-3 3 -6 1 -6 -5 0 -7 -7 -12 -16 -12 -8 0 -12 -4 -9 -10 3 -5 1 -10 -4 -10 -6
0 -11 5 -11 10 0 6 -10 10 -22 10 -19 0 -20 1 -6 13 9 6 18 26 20 42 3 26 7
30 31 27 18 -2 27 2 27 11 0 21 98 43 208 47 6 0 12 5 12 11 0 12 -154 10
-180 -2 -52 -24 -155 -50 -158 -40 -8 23 -24 10 -18 -14 5 -21 3 -25 -14 -25
-11 0 -23 -7 -26 -15 -7 -17 -34 -21 -34 -5 0 6 5 10 10 10 6 0 10 5 10 11 0
6 -8 8 -19 4 -23 -7 -39 13 -17 21 9 3 16 12 16 19 0 7 7 18 15 25 12 10 18
10 30 0 9 -8 15 -9 15 -2 0 6 -5 14 -10 17 -8 5 -8 11 -1 19 7 9 7 16 -1 24
-6 6 -8 19 -4 29 7 17 8 17 17 1 5 -9 16 -15 24 -12 8 4 18 -1 21 -10 8 -20
28 -21 43 -2 8 9 33 15 69 15 31 0 97 3 146 6 60 3 94 1 103 -7 10 -8 17 -8
25 0 12 12 41 4 32 -9 -3 -5 5 -9 17 -9 21 0 21 1 6 18 -10 10 -14 22 -10 27
5 4 -2 5 -13 1 -16 -5 -23 -2 -27 13 -3 13 -19 24 -45 31 -23 6 -44 15 -47 20
-3 6 -17 10 -31 10 -15 0 -24 6 -24 16 0 10 -6 14 -15 10 -8 -3 -18 0 -22 7
-5 7 -14 12 -22 12 -26 0 -23 24 3 36 27 13 38 46 11 35 -10 -3 -15 1 -15 13
0 10 6 18 13 18 36 -3 126 17 131 29 3 8 20 14 41 14 34 0 43 12 36 53 0 4 10
7 24 7 14 0 25 5 25 11 0 5 4 7 10 4 12 -8 59 26 60 43 0 6 -4 12 -10 12 -5 0
-10 8 -10 17 0 13 3 14 12 5 16 -16 37 14 38 51 0 22 4 28 18 25 9 -2 21 -13
27 -26 20 -44 24 -20 20 110 -3 89 -1 136 7 145 8 10 8 17 0 25 -8 8 -7 15 6
24 12 10 13 13 3 14 -7 0 -11 6 -8 14 3 8 -8 29 -24 47 -16 18 -29 39 -29 46
0 7 -10 18 -22 24 -60 27 -81 46 -45 40 4 0 7 6 7 14 0 10 -10 15 -30 15 -24
0 -30 4 -28 18 2 11 -4 17 -17 17 -13 0 -19 6 -17 18 2 10 -3 17 -12 17 -17 0
-17 43 -1 69 6 10 4 12 -5 6 -6 -4 -27 -10 -46 -12 -32 -4 -34 -3 -34 26 0 30
-1 31 -49 31 -28 0 -53 5 -56 10 -3 6 1 10 10 10 9 0 13 5 10 10 -4 6 -19 9
-33 8 -21 -2 -26 1 -24 15 3 20 -9 22 -26 5 -8 -8 -15 -9 -22 -2 -13 13 -2 44
15 44 7 0 18 7 25 15 16 19 16 19 -52 -9z m-1133 -206 c3 -6 -1 -13 -10 -16
-19 -8 -30 0 -20 15 8 14 22 14 30 1z m-525 -406 c0 -8 -3 -14 -8 -14 -4 0
-22 -29 -41 -64 -38 -74 -68 -97 -57 -45 9 49 74 149 91 142 8 -3 15 -11 15
-19z m1673 -591 c-7 -2 -21 -2 -30 0 -10 3 -4 5 12 5 17 0 24 -2 18 -5z m-223
-139 c-8 -27 -8 -26 -9 16 0 32 2 40 9 29 5 -9 6 -28 0 -45z m-30 7 c0 -17 -4
-32 -9 -36 -14 -8 -25 15 -13 27 6 6 8 17 5 24 -3 8 0 14 6 14 6 0 11 -13 11
-29z m-42 -160 c3 -17 7 -20 17 -11 10 8 15 6 20 -9 9 -28 -1 -41 -30 -41 -30
0 -50 -33 -36 -58 10 -16 10 -16 11 1 0 10 5 15 10 12 7 -4 8 -26 4 -57 -11
-85 28 -224 93 -326 18 -29 33 -56 33 -60 0 -4 9 -13 20 -20 12 -7 18 -17 15
-22 -3 -6 -2 -10 4 -10 14 0 72 -62 99 -105 25 -42 29 -87 7 -105 -8 -7 -13
-16 -10 -20 3 -4 -2 -13 -9 -20 -11 -8 -20 -9 -36 0 -11 6 -18 15 -16 19 9 14
-70 34 -106 27 -39 -8 -78 -38 -78 -61 0 -20 -54 -43 -86 -37 -19 3 -22 7 -13
18 6 8 20 14 30 14 26 0 33 17 12 29 -16 9 -16 10 -1 11 12 0 16 8 15 32 -2
28 -8 36 -42 52 -30 15 -35 21 -22 24 10 2 27 -4 38 -13 18 -17 19 -17 25 0 4
10 1 21 -7 26 -12 8 -11 11 4 20 13 7 15 15 8 28 -7 12 -6 22 1 29 8 8 8 15
-2 27 -9 11 -16 13 -24 5 -13 -13 -46 -13 -46 0 0 6 5 10 10 10 14 0 12 54 -2
68 -7 7 -11 39 -11 79 1 37 -3 73 -9 80 -5 7 -7 17 -3 23 3 6 -3 10 -14 10
-26 0 -27 15 -3 29 15 9 15 10 -6 11 -19 0 -21 4 -16 25 4 14 1 32 -6 40 -10
12 -9 16 5 21 12 5 13 9 5 14 -18 11 -3 30 24 30 13 0 29 6 36 14 9 12 7 17
-9 28 -12 7 -21 21 -21 30 0 10 -4 18 -10 18 -5 0 -7 -7 -4 -15 4 -8 2 -15 -4
-15 -11 0 -22 23 -22 48 0 12 3 13 12 4 17 -17 28 -15 28 4 0 12 6 15 26 10
26 -7 26 -6 21 26 -3 18 -3 27 0 21 6 -17 23 -17 23 0 0 24 45 13 48 -12z
m-1738 -42 c0 -5 -4 -9 -10 -9 -5 0 -10 7 -10 16 0 8 5 12 10 9 6 -3 10 -10
10 -16z m1760 -39 c0 -5 -4 -10 -10 -10 -5 0 -10 5 -10 10 0 6 5 10 10 10 6 0
10 -4 10 -10z m107 -196 c4 -11 -1 -22 -12 -30 -11 -8 -14 -14 -6 -14 7 0 11
-5 9 -12 -5 -15 -38 -19 -38 -4 0 6 -10 16 -22 21 -32 15 -32 30 -1 42 41 16
63 15 70 -3z m-1793 -59 c-4 -8 -8 -15 -10 -15 -2 0 -4 7 -4 15 0 8 4 15 10
15 5 0 7 -7 4 -15z m1796 -45 c0 -5 -2 -10 -4 -10 -3 0 -8 5 -11 10 -3 6 -1
10 4 10 6 0 11 -4 11 -10z m-257 -30 c3 -11 1 -18 -4 -14 -5 3 -9 12 -9 20 0
20 7 17 13 -6z m457 -11 c0 -12 -47 -12 -54 0 -3 4 -3 10 0 13 7 8 54 -3 54
-13z m260 -239 c0 -5 -15 -9 -32 -9 l-33 1 30 8 c17 4 31 8 33 9 1 0 2 -3 2
-9z m-485 -230 l-30 -7 25 -11 c24 -10 24 -11 -12 -11 -31 -1 -35 2 -31 19 4
16 13 20 42 19 l36 -1 -30 -8z m291 -240 c14 0 14 3 4 15 -14 16 -14 16 34 1
15 -5 16 -9 6 -21 -10 -12 -10 -15 3 -15 21 0 29 -27 14 -50 -14 -23 -23 -25
-30 -7 -4 7 -6 6 -6 -5 -1 -14 -5 -14 -25 -5 -17 8 -22 16 -16 27 11 19 -6 50
-28 50 -13 0 -14 -2 -3 -9 9 -6 10 -11 2 -15 -12 -8 -14 3 -11 47 2 33 -6 34
-30 5 -18 -22 -19 -22 -26 -4 -5 12 -3 21 4 24 7 2 12 13 12 24 0 17 7 14 40
-21 22 -22 47 -41 56 -41z m84 30 c0 -5 -5 -10 -11 -10 -5 0 -7 5 -4 10 3 6 8
10 11 10 2 0 4 -4 4 -10z m61 -75 c31 -10 22 -22 -18 -27 -21 -3 -40 -4 -41
-2 -2 1 2 19 9 39 12 33 14 35 23 16 5 -11 17 -23 27 -26z m-4561 -70 c0 -8
-4 -15 -10 -15 -5 0 -7 7 -4 15 4 8 8 15 10 15 2 0 4 -7 4 -15z m46 -193 c12
-7 15 -44 4 -37 -4 2 -13 -7 -20 -20 -16 -30 -36 -32 -50 -5 -10 19 -9 20 14
14 24 -6 26 -4 20 25 -7 31 6 41 32 23z m74 -21 c0 -6 -4 -13 -10 -16 -5 -3
-10 1 -10 9 0 9 5 16 10 16 6 0 10 -4 10 -9z m-90 -181 c0 -5 -4 -10 -10 -10
-5 0 -10 5 -10 10 0 6 5 10 10 10 6 0 10 -4 10 -10z m70 -21 c0 -11 -27 -12
-34 0 -3 4 -3 11 0 14 8 8 34 -3 34 -14z m-3 -37 c23 2 27 0 25 -17 -5 -37
-11 -45 -33 -45 -12 0 -19 5 -16 13 2 6 11 11 20 11 9 -1 13 4 10 12 -3 8 -18
14 -34 14 -20 0 -29 5 -29 16 0 13 3 14 14 5 8 -7 27 -11 43 -9z m393 -56 c-6
-6 -17 -1 -30 14 -27 31 -25 34 10 13 19 -11 26 -21 20 -27z m-454 -13 c-1
-13 7 -19 27 -21 19 -2 27 -9 27 -23 0 -10 -4 -19 -10 -19 -5 0 -10 6 -10 14
0 9 -7 12 -20 9 -11 -3 -20 -9 -20 -14 0 -5 -7 -9 -15 -9 -17 0 -20 16 -4 26
6 3 9 17 6 30 -3 15 0 24 8 24 7 0 12 -8 11 -17z m524 2 c-11 -13 -8 -15 16
-16 23 -1 24 -3 7 -6 -12 -2 -31 1 -43 7 -17 9 -22 7 -30 -15 -10 -28 -20 -31
-38 -13 -9 9 -16 7 -31 -6 -20 -18 -45 -13 -38 7 2 7 -3 18 -10 26 -20 19 -9
25 19 10 28 -16 71 -24 48 -10 -23 15 -4 24 20 9 18 -11 22 -11 31 5 6 9 22
17 36 17 21 0 24 -2 13 -15z m-403 -62 c-3 -10 -5 -4 -5 12 0 17 2 24 5 18 2
-7 2 -21 0 -30z m398 17 c8 -13 -4 -50 -16 -50 -5 0 -9 14 -9 30 0 30 13 40
25 20z m65 -10 c0 -5 -7 -10 -16 -10 -8 0 -12 5 -9 10 3 6 10 10 16 10 5 0 9
-4 9 -10z m-420 -25 c0 -16 -6 -25 -15 -25 -28 0 -18 40 13 49 1 1 2 -10 2
-24z m280 -11 c0 -17 -22 -14 -28 4 -2 7 3 12 12 12 9 0 16 -7 16 -16z m99
-13 c-15 -5 -22 6 -14 19 6 9 10 9 16 -1 5 -8 4 -15 -2 -18z m-23 -11 c8 0 14
-3 14 -7 0 -10 -80 -8 -80 1 0 3 5 12 12 20 10 11 15 11 26 -1 7 -7 20 -13 28
-13z m-146 14 c0 -11 -45 -84 -52 -84 -8 0 4 36 22 71 10 17 30 27 30 13z
m-65 -44 c3 -5 -1 -10 -9 -10 -9 0 -16 5 -16 10 0 6 4 10 9 10 6 0 13 -4 16
-10z m265 -20 c0 -5 -9 -10 -20 -10 -11 0 -20 5 -20 10 0 6 9 10 20 10 11 0
20 -4 20 -10z m-290 -4 c0 -3 -4 -8 -10 -11 -5 -3 -10 -1 -10 4 0 6 5 11 10
11 6 0 10 -2 10 -4z m130 -49 c0 -5 -8 -7 -17 -5 -12 2 -19 14 -21 33 l-3 30
20 -25 c12 -14 21 -29 21 -33z m-407 13 c18 -16 38 -30 45 -30 6 0 12 -7 12
-15 0 -20 -22 -19 -42 3 -9 9 -28 26 -42 37 -13 10 -22 23 -20 27 8 12 13 10
47 -22z m502 0 c3 -5 0 -10 -9 -10 -8 0 -21 -3 -30 -6 -9 -3 -16 -1 -16 4 0 9
15 16 42 21 4 0 10 -3 13 -9z m4385 -11 c0 -5 -4 -9 -10 -9 -5 0 -10 7 -10 16
0 8 5 12 10 9 6 -3 10 -10 10 -16z m-4614 -4 c-7 -20 23 -33 34 -15 10 17 31
4 23 -15 -3 -8 -14 -15 -24 -15 -11 0 -28 -6 -39 -12 -17 -11 -22 -10 -30 2
-5 9 -5 19 1 26 5 7 9 16 8 20 -3 18 1 24 17 24 10 0 14 -5 10 -15z m4699 6
c3 -5 1 -12 -5 -16 -5 -3 -10 1 -10 9 0 18 6 21 15 7z m-4775 -11 c0 -5 -7
-10 -15 -10 -8 0 -15 5 -15 10 0 6 7 10 15 10 8 0 15 -4 15 -10z m3810 -10 c0
-5 -2 -10 -4 -10 -3 0 -8 5 -11 10 -3 6 -1 10 4 10 6 0 11 -4 11 -10z m-3829
-20 c5 -42 2 -70 -8 -70 -6 0 -14 6 -16 13 -3 6 -6 3 -6 -8 0 -11 3 -27 9 -35
6 -9 5 -17 -3 -22 -21 -13 -30 -9 -24 12 3 13 0 20 -8 20 -10 0 -12 10 -9 38
5 35 5 36 -10 18 -9 -11 -16 -29 -17 -40 0 -20 -1 -20 -8 -2 -4 11 -6 30 -3
43 3 18 11 23 33 23 15 0 31 5 34 10 3 6 13 10 21 10 8 0 15 -4 15 -10z m-193
-27 c-2 -14 -8 -28 -15 -30 -8 -3 -11 5 -9 24 4 34 4 33 17 33 6 0 9 -12 7
-27z m372 7 c0 -5 -2 -10 -4 -10 -3 0 -8 5 -11 10 -3 6 -1 10 4 10 6 0 11 -4
11 -10z m-353 -22 c-3 -8 -6 -5 -6 6 -1 11 2 17 5 13 3 -3 4 -12 1 -19z m53
-38 c0 -13 -5 -18 -15 -14 -12 5 -13 10 -4 20 15 19 19 18 19 -6z m181 -8
c-16 -5 -41 5 -41 17 0 7 10 6 26 -1 15 -7 21 -14 15 -16z m-251 -12 c0 -5 8
-10 17 -10 13 0 14 -3 6 -11 -7 -7 -19 -9 -27 -6 -17 7 -22 37 -6 37 6 0 10
-4 10 -10z m297 -10 c-3 -11 -1 -20 4 -20 4 0 5 -8 2 -17 -6 -15 -7 -15 -13 3
-7 19 -2 54 7 54 3 0 3 -9 0 -20z m-17 2 c0 -13 -12 -22 -22 -16 -10 6 -1 24
13 24 5 0 9 -4 9 -8z m120 -12 c0 -5 -4 -10 -10 -10 -5 0 -10 5 -10 10 0 6 5
10 10 10 6 0 10 -4 10 -10z m-402 -41 c-2 -6 -8 -10 -13 -10 -5 0 -11 4 -13
10 -2 6 4 11 13 11 9 0 15 -5 13 -11z m168 0 c4 -8 9 -7 15 2 4 7 11 10 16 6
4 -5 1 -12 -6 -16 -8 -5 -16 -32 -19 -60 l-5 -51 34 7 c19 3 36 9 39 12 3 3
13 7 23 9 28 5 1 -32 -34 -45 -22 -9 -27 -15 -22 -33 4 -17 2 -21 -8 -18 -8 3
-14 11 -14 19 0 19 -26 38 -52 39 -13 0 -23 6 -23 15 0 8 6 12 13 9 8 -3 19 2
26 9 9 12 8 16 -4 21 -21 8 -19 23 5 29 17 4 30 37 15 37 -15 0 -65 -32 -65
-41 0 -6 -5 -7 -11 -4 -6 4 -4 12 8 20 10 7 19 18 19 24 3 20 4 21 23 21 11 0
23 -5 27 -11z m-110 -14 c16 -13 17 -16 4 -24 -10 -7 -16 -7 -19 2 -2 7 -10
18 -19 25 -24 19 9 16 34 -3z m214 -9 c0 -3 -4 -8 -10 -11 -5 -3 -10 -1 -10 4
0 6 5 11 10 11 6 0 10 -2 10 -4z m-266 -61 c-1 -14 1 -39 6 -55 7 -24 5 -30
-12 -35 -11 -4 -22 -4 -25 -1 -4 3 -2 6 4 6 12 0 13 61 1 77 -11 14 -2 33 16
33 8 0 12 -10 10 -25z m440 -6 c-4 -30 -2 -31 26 -27 26 4 30 1 30 -19 0 -19
-4 -23 -19 -18 -11 3 -22 1 -26 -5 -3 -5 0 -10 7 -10 22 0 47 -56 39 -87 -10
-39 -37 -37 -33 2 3 34 -19 72 -36 61 -16 -10 -15 -56 1 -56 8 0 7 -4 -3 -10
-23 -15 -32 -12 -25 10 5 14 2 20 -9 20 -23 0 -20 31 4 37 11 3 20 10 20 15 0
5 5 6 10 3 13 -8 13 48 0 61 -10 10 -2 54 10 54 4 0 6 -14 4 -31z m-49 11 c3
-5 -1 -10 -10 -10 -9 0 -13 5 -10 10 3 6 8 10 10 10 2 0 7 -4 10 -10z m-309
-32 c-1 -13 -11 -25 -21 -27 -13 -2 -16 1 -11 14 3 9 6 21 6 26 0 5 7 9 15 9
10 0 14 -8 11 -22z m287 -8 c-3 -11 -9 -20 -14 -20 -14 0 -11 28 4 33 6 3 13
6 14 6 0 1 -1 -8 -4 -19z m-73 -20 c0 -5 -2 -10 -4 -10 -3 0 -8 5 -11 10 -3 6
-1 10 4 10 6 0 11 -4 11 -10z m1608 -7 c-5 -25 -28 -28 -28 -4 0 12 6 21 16
21 9 0 14 -7 12 -17z m-1738 -13 c0 -5 -5 -10 -11 -10 -5 0 -7 5 -4 10 3 6 8
10 11 10 2 0 4 -4 4 -10z m88 -14 c-7 -8 -16 -12 -21 -9 -11 7 2 23 19 23 12
0 12 -2 2 -14z m1650 -18 c-2 -6 -10 -14 -16 -16 -7 -2 -10 2 -6 12 7 18 28
22 22 4z m-1718 -44 c0 -13 5 -24 10 -24 24 0 7 -18 -22 -25 -23 -5 -27 -9
-15 -12 19 -5 24 -33 5 -33 -36 1 -57 46 -31 66 11 8 13 13 6 14 -8 0 -5 10 9
25 24 28 38 24 38 -11z m168 15 c7 -12 11 -24 8 -27 -6 -6 -35 27 -36 41 0 14
15 7 28 -14z m-123 1 c3 -5 1 -10 -4 -10 -6 0 -11 5 -11 10 0 6 2 10 4 10 3 0
8 -4 11 -10z m70 -20 c3 -5 -1 -10 -9 -10 -9 0 -16 5 -16 10 0 6 4 10 9 10 6
0 13 -4 16 -10z m1605 -39 c0 -4 -12 -6 -27 -5 -36 2 -36 2 -26 17 4 6 8 15 9
20 1 4 2 10 3 15 2 8 41 -37 41 -47z m2900 19 c0 -5 -4 -10 -10 -10 -5 0 -10
5 -10 10 0 6 5 10 10 10 6 0 10 -4 10 -10z m-4705 -20 c3 -5 2 -10 -4 -10 -5
0 -13 5 -16 10 -3 6 -2 10 4 10 5 0 13 -4 16 -10z m115 -30 c0 -5 -7 -10 -15
-10 -8 0 -15 5 -15 10 0 6 7 10 15 10 8 0 15 -4 15 -10z m77 -24 c26 -27 18
-44 -9 -19 -17 15 -20 15 -28 3 -7 -11 -10 -8 -10 13 0 33 18 35 47 3z m203
10 c0 -16 -27 -29 -41 -20 -15 9 -10 22 9 27 29 8 32 7 32 -7z m-80 -22 c0 -7
-7 -15 -16 -18 -23 -9 -24 -8 -24 13 0 14 6 19 20 18 11 -1 20 -7 20 -13z m68
-26 c-3 -7 -11 -13 -18 -13 -7 0 -15 6 -17 13 -3 7 4 12 17 12 13 0 20 -5 18
-12z m-253 -8 c3 -5 -3 -10 -15 -10 -17 0 -19 -4 -14 -25 5 -19 2 -25 -11 -25
-11 0 -15 5 -11 15 3 8 2 15 -3 15 -5 0 -12 -10 -16 -22 -4 -17 -8 -19 -12 -9
-3 9 8 26 28 42 37 31 45 34 54 19z m213 -27 c16 -16 16 -16 0 -10 -11 4 -21
0 -27 -11 -9 -15 -10 -15 -11 4 0 36 13 42 38 17z m1252 -23 c0 -5 -4 -10 -10
-10 -5 0 -10 5 -10 10 0 6 5 10 10 10 6 0 10 -4 10 -10z m-1310 -19 c0 -6 -4
-13 -10 -16 -5 -3 -10 1 -10 9 0 9 5 16 10 16 6 0 10 -4 10 -9z m-60 -21 c9
-16 8 -18 -5 -14 -8 4 -15 12 -15 20 0 20 7 17 20 -6z m-262 -2 c-3 -7 -17
-15 -33 -16 -25 -3 -27 -2 -16 12 16 19 55 22 49 4z m1632 2 c0 -5 -7 -10 -15
-10 -8 0 -15 5 -15 10 0 6 7 10 15 10 8 0 15 -4 15 -10z m-1560 -31 c0 -6 -4
-7 -10 -4 -5 3 -10 11 -10 16 0 6 5 7 10 4 6 -3 10 -11 10 -16z m294 6 c-4 -8
-8 -15 -10 -15 -2 0 -4 7 -4 15 0 8 4 15 10 15 5 0 7 -7 4 -15z m-134 -37 c0
-10 -5 -18 -11 -18 -15 0 -39 26 -39 43 0 13 4 13 25 4 14 -7 25 -20 25 -29z
m180 32 c0 -5 -4 -10 -10 -10 -5 0 -10 5 -10 10 0 6 5 10 10 10 6 0 10 -4 10
-10z m-270 -40 c0 -5 -4 -10 -10 -10 -5 0 -10 5 -10 10 0 6 5 10 10 10 6 0 10
-4 10 -10z m185 -20 c3 -5 1 -10 -4 -10 -6 0 -11 5 -11 10 0 6 2 10 4 10 3 0
8 -4 11 -10z m-251 -61 c-3 -5 -10 -7 -15 -3 -5 3 -7 10 -3 15 3 5 10 7 15 3
5 -3 7 -10 3 -15z m226 1 c0 -5 -5 -10 -11 -10 -5 0 -7 5 -4 10 3 6 8 10 11
10 2 0 4 -4 4 -10z m-123 -36 c-3 -3 -12 -4 -19 -1 -8 3 -5 6 6 6 11 1 17 -2
13 -5z m-146 -85 c-21 -9 -23 -6 -28 38 l-4 37 24 -34 c20 -30 21 -36 8 -41z
m2386 49 c-3 -8 -6 -5 -6 6 -1 11 2 17 5 13 3 -3 4 -12 1 -19z m-1717 -8 c0
-5 -9 -10 -21 -10 -11 0 -17 5 -14 10 3 6 13 10 21 10 8 0 14 -4 14 -10z
m-765 -50 c-3 -5 -13 -10 -21 -10 -8 0 -12 5 -9 10 3 6 13 10 21 10 8 0 12 -4
9 -10z m332 -12 c-3 -8 -6 -5 -6 6 -1 11 2 17 5 13 3 -3 4 -12 1 -19z m2166
-13 c-5 -13 -23 -22 -23 -11 0 15 14 35 21 31 4 -3 6 -12 2 -20z m-2237 -90
c-5 -21 -60 -85 -72 -85 -3 0 -3 8 1 19 5 16 -1 18 -50 20 -53 1 -95 16 -95
34 0 5 6 7 14 4 8 -3 34 0 58 7 23 7 58 12 76 11 18 -1 37 4 43 11 16 20 32 6
25 -21z m4651 -177 c-3 -8 -6 -5 -6 6 -1 11 2 17 5 13 3 -3 4 -12 1 -19z
m-307 2 c0 -5 -5 -10 -11 -10 -5 0 -7 5 -4 10 3 6 8 10 11 10 2 0 4 -4 4 -10z
m-4350 -12 c0 -4 -4 -8 -9 -8 -6 0 -12 4 -15 8 -3 5 1 9 9 9 8 0 15 -4 15 -9z
m4635 -38 c3 -5 1 -10 -4 -10 -6 0 -11 5 -11 10 0 6 2 10 4 10 3 0 8 -4 11
-10z m-15 -113 c0 -5 -7 -6 -16 -3 -9 3 -18 6 -20 6 -2 0 -4 7 -4 15 0 13 3
13 20 3 11 -7 20 -17 20 -21z m-340 -18 c0 -5 -4 -9 -10 -9 -5 0 -10 7 -10 16
0 8 5 12 10 9 6 -3 10 -10 10 -16z m320 1 c0 -5 -2 -10 -4 -10 -3 0 -8 5 -11
10 -3 6 -1 10 4 10 6 0 11 -4 11 -10z m-374 -58 c1 -7 0 -8 -2 -3 -3 6 -12 7
-20 4 -8 -3 -14 0 -14 7 0 15 33 9 36 -8z m-146 -156 c0 -3 -4 -8 -10 -11 -5
-3 -10 -1 -10 4 0 6 5 11 10 11 6 0 10 -2 10 -4z m310 -52 c0 -8 -4 -12 -10
-9 -5 3 -10 10 -10 16 0 5 5 9 10 9 6 0 10 -7 10 -16z m-4267 -29 c10 -14 13
-25 7 -25 -5 0 -10 -9 -10 -21 0 -11 5 -17 10 -14 6 3 10 0 10 -9 0 -8 -8 -13
-17 -12 -13 2 -19 14 -21 44 -2 23 -8 42 -13 42 -6 0 -7 5 -4 10 9 15 18 12
38 -15z m4246 1 c10 -12 8 -13 -8 -9 -12 3 -18 9 -15 14 7 12 10 11 23 -5z
m-51 -81 c-3 -3 -9 2 -12 12 -6 14 -5 15 5 6 7 -7 10 -15 7 -18z"/>
<path d="M3970 3295 c0 -9 6 -12 15 -9 8 4 15 10 15 15 0 5 -7 9 -15 9 -8 0
-15 -7 -15 -15z"/>
<path d="M4422 5258 c-14 -14 -16 -28 -3 -28 9 0 24 30 18 36 -2 2 -9 -2 -15
-8z"/>
<path d="M1401 5165 l1 -50 8 40 c5 22 4 44 -1 50 -5 5 -9 -11 -8 -40z"/>
<path d="M1390 5086 c0 -14 4 -27 8 -30 5 -3 9 8 9 24 0 17 -4 30 -9 30 -4 0
-8 -11 -8 -24z"/>
<path d="M1420 5027 c0 -16 -5 -38 -12 -50 -10 -19 -9 -20 4 -9 19 15 28 56
17 74 -6 9 -9 4 -9 -15z"/>
<path d="M571 5001 c-10 -7 -10 -10 -1 -16 6 -4 16 -3 22 3 13 13 -4 23 -21
13z"/>
<path d="M515 4970 c-3 -5 1 -10 10 -10 9 0 13 5 10 10 -3 6 -8 10 -10 10 -2
0 -7 -4 -10 -10z"/>
<path d="M552 4958 c6 -18 25 -20 31 -3 5 10 0 15 -14 15 -12 0 -19 -5 -17
-12z"/>
<path d="M906 4945 c-9 -37 4 -53 20 -24 17 31 17 49 0 49 -8 0 -17 -11 -20
-25z"/>
<path d="M1400 4895 c1 -26 2 -28 11 -12 8 14 8 22 0 30 -8 8 -11 3 -11 -18z"/>
<path d="M500 4850 c0 -17 7 -33 18 -39 16 -10 16 -12 0 -25 -29 -22 -22 -39
12 -31 19 4 30 3 30 -4 0 -6 5 -11 11 -11 5 0 3 10 -5 22 -22 32 -20 47 5 41
16 -4 20 -2 17 8 -2 8 -14 15 -26 17 -33 5 -26 22 8 22 17 0 30 -4 30 -10 0
-5 7 -10 15 -10 8 0 15 7 15 15 0 15 -16 20 -52 17 -10 -1 -18 3 -18 8 0 6
-13 10 -30 10 -27 0 -30 -3 -30 -30z"/>
<path d="M1410 4823 c0 -13 5 -23 10 -23 13 0 13 11 0 30 -8 12 -10 11 -10 -7z"/>
<path d="M610 4785 c7 -8 16 -15 21 -15 5 0 9 7 9 15 0 9 -9 15 -21 15 -18 0
-19 -2 -9 -15z"/>
<path d="M728 4793 c7 -3 16 -2 19 1 4 3 -2 6 -13 5 -11 0 -14 -3 -6 -6z"/>
<path d="M1361 4738 c1 -47 3 -57 9 -38 12 36 12 100 0 100 -6 0 -10 -27 -9
-62z"/>
<path d="M650 4764 c0 -7 10 -9 25 -6 32 6 32 20 0 18 -14 0 -25 -6 -25 -12z"/>
<path d="M499 4724 c-1 -5 -1 -16 0 -25 1 -9 -5 -19 -14 -22 -8 -4 -15 -14
-15 -24 0 -14 2 -15 9 -4 7 11 10 11 17 0 6 -10 10 -4 14 21 5 31 8 35 33 33
15 -1 27 2 27 8 0 5 -9 9 -19 9 -11 0 -26 3 -35 6 -9 3 -17 2 -17 -2z"/>
<path d="M684 4705 c-9 -19 -9 -27 2 -36 20 -16 24 -9 16 28 l-7 32 -11 -24z"/>
<path d="M744 4705 c-8 -20 3 -48 16 -40 13 8 13 55 0 55 -6 0 -13 -7 -16 -15z"/>
<path d="M440 4690 c0 -5 5 -10 10 -10 6 0 10 5 10 10 0 6 -4 10 -10 10 -5 0
-10 -4 -10 -10z"/>
<path d="M872 4688 c-7 -7 -12 -20 -12 -30 0 -16 -3 -17 -21 -8 -23 13 -49 7
-49 -11 0 -7 3 -9 7 -6 3 4 13 -2 21 -14 11 -16 20 -19 43 -14 23 5 29 3 29
-10 0 -9 5 -13 10 -10 17 10 12 45 -7 45 -15 0 -15 1 1 19 15 17 15 19 1 25
-9 3 -13 10 -10 16 8 14 2 13 -13 -2z"/>
<path d="M4935 4689 c-4 -6 2 -19 14 -30 22 -21 20 -39 -5 -39 -12 0 -12 -3
-2 -20 7 -11 19 -20 27 -20 12 0 12 3 3 12 -18 18 -14 28 12 28 22 0 43 26 31
38 -3 3 -5 0 -5 -6 0 -17 -27 -15 -33 3 -4 8 -2 17 4 20 5 4 7 11 4 16 -8 12
-42 11 -50 -2z"/>
<path d="M1357 4657 c-11 -29 -9 -43 4 -30 6 6 9 19 7 29 -3 18 -4 18 -11 1z"/>
<path d="M4845 4650 c-3 -5 -1 -10 4 -10 6 0 11 5 11 10 0 6 -2 10 -4 10 -3 0
-8 -4 -11 -10z"/>
<path d="M612 4638 c2 -8 -6 -13 -20 -12 -20 1 -21 -1 -8 -14 20 -20 69 -8 64
16 -2 9 -11 18 -21 20 -10 2 -16 -2 -15 -10z"/>
<path d="M710 4631 c0 -11 39 -25 47 -18 3 3 2 10 -2 16 -8 13 -45 15 -45 2z"/>
<path d="M936 4627 c4 -10 1 -30 -7 -43 -11 -22 -11 -27 1 -34 12 -8 16 -1 18
32 2 22 -2 46 -8 52 -8 8 -9 6 -4 -7z"/>
<path d="M540 4591 c0 -5 7 -11 15 -15 9 -3 15 0 15 9 0 8 -7 15 -15 15 -8 0
-15 -4 -15 -9z"/>
<path d="M4900 4590 c0 -5 5 -10 10 -10 6 0 10 5 10 10 0 6 -4 10 -10 10 -5 0
-10 -4 -10 -10z"/>
<path d="M641 4574 c-1 -18 26 -37 34 -24 3 5 0 10 -9 10 -8 0 -17 6 -19 13
-4 7 -6 8 -6 1z"/>
<path d="M350 4557 c0 -8 7 -21 16 -28 14 -11 15 -10 12 11 -3 26 -28 41 -28
17z"/>
<path d="M460 4566 c0 -4 7 -14 15 -22 8 -9 15 -11 15 -6 0 5 -7 15 -15 22 -8
7 -15 9 -15 6z"/>
<path d="M891 4546 c-1 -13 -7 -17 -21 -13 -11 3 -18 1 -14 -4 3 -5 -3 -9 -13
-10 -15 0 -14 -2 4 -9 20 -8 38 -53 31 -78 -2 -5 2 -9 7 -8 6 0 9 6 9 13 -1 7
3 11 10 10 6 -1 10 8 8 21 -2 12 2 22 7 22 14 0 14 37 1 45 -5 3 -11 -4 -11
-17 -1 -16 -4 -12 -9 12 -4 19 -8 27 -9 16z"/>
<path d="M4946 4552 c5 -4 14 -16 20 -26 16 -31 31 -30 27 1 -4 22 -10 28 -30
30 -14 0 -22 -2 -17 -5z"/>
<path d="M560 4538 c0 -5 4 -7 8 -4 5 3 23 -8 41 -24 34 -31 51 -38 51 -19 0
6 -9 13 -20 16 -11 3 -20 14 -20 23 0 14 -7 18 -30 18 -16 -1 -30 -5 -30 -10z"/>
<path d="M1347 4543 c-11 -10 -8 -63 3 -63 6 0 10 16 10 35 0 36 -2 40 -13 28z"/>
<path d="M413 4484 c-16 -16 -17 -34 -2 -34 8 0 7 -6 -2 -17 -8 -10 -9 -14 -2
-10 6 4 14 3 18 -3 7 -11 75 -10 75 2 0 4 -4 8 -10 8 -5 0 -10 7 -10 15 0 14
4 14 31 0 17 -9 33 -15 35 -12 8 7 -8 37 -17 32 -4 -3 -18 0 -29 7 -18 11 -23
10 -31 -4 -14 -25 -43 -24 -36 2 6 25 -4 32 -20 14z"/>
<path d="M510 4489 c0 -5 5 -7 10 -4 6 3 10 8 10 11 0 2 -4 4 -10 4 -5 0 -10
-5 -10 -11z"/>
<path d="M828 4454 c2 -14 9 -23 15 -21 19 6 19 25 -1 36 -17 9 -18 7 -14 -15z"/>
<path d="M932 4435 c0 -16 2 -22 5 -12 2 9 2 23 0 30 -3 6 -5 -1 -5 -18z"/>
<path d="M730 4420 c0 -15 7 -20 29 -20 17 0 33 5 37 12 5 7 0 9 -14 6 -13 -4
-23 0 -26 8 -8 21 -26 17 -26 -6z"/>
<path d="M1175 4430 c-3 -5 -1 -10 4 -10 6 0 11 5 11 10 0 6 -2 10 -4 10 -3 0
-8 -4 -11 -10z"/>
<path d="M1059 4383 c0 -27 -3 -66 -6 -88 -3 -22 -6 -73 -7 -113 0 -39 -4 -72
-8 -72 -5 0 -8 -4 -8 -8 0 -5 6 -9 13 -9 6 0 28 -3 47 -8 l35 -7 -19 21 c-11
11 -14 21 -9 21 6 0 13 9 16 20 3 12 14 20 26 20 18 0 20 4 15 28 -9 35 -9 35
-32 23 -24 -13 -46 7 -36 32 3 8 1 18 -5 22 -18 10 -13 45 6 45 13 0 14 3 5
12 -7 7 -12 34 -12 60 0 26 -4 48 -10 48 -5 0 -10 -21 -11 -47z m15 -194 c-3
-5 -10 -7 -15 -3 -5 3 -7 10 -3 15 3 5 10 7 15 3 5 -3 7 -10 3 -15z m26 -19
c0 -5 -5 -10 -11 -10 -5 0 -7 5 -4 10 3 6 8 10 11 10 2 0 4 -4 4 -10z"/>
<path d="M330 4385 c0 -8 4 -15 10 -15 5 0 7 7 4 15 -4 8 -8 15 -10 15 -2 0
-4 -7 -4 -15z"/>
<path d="M403 4383 c-7 -17 -5 -19 30 -27 15 -3 27 -2 27 3 0 5 2 16 5 24 4
10 -3 14 -26 14 -17 0 -33 -6 -36 -14z"/>
<path d="M887 4380 c3 -11 7 -20 9 -20 2 0 4 9 4 20 0 11 -4 20 -9 20 -5 0 -7
-9 -4 -20z"/>
<path d="M500 4376 c0 -10 9 -16 21 -16 24 0 21 23 -4 28 -10 2 -17 -3 -17
-12z"/>
<path d="M917 4383 c-4 -3 -7 -17 -7 -30 0 -16 -4 -22 -12 -17 -8 5 -9 2 -5
-10 4 -9 3 -14 -2 -11 -13 7 -26 -16 -14 -24 5 -3 12 -14 16 -23 8 -22 -19
-38 -62 -38 -17 0 -31 -5 -31 -12 0 -6 -7 -4 -18 5 -10 10 -26 17 -36 17 -14
0 -15 -4 -6 -20 8 -14 17 -19 30 -15 10 3 21 2 24 -3 3 -5 17 -7 31 -5 34 7
56 -3 49 -22 -4 -10 -19 -15 -45 -15 -21 0 -39 -4 -39 -10 0 -20 71 -16 83 5
10 19 28 19 21 0 -3 -8 -15 -17 -26 -21 -16 -5 -18 -8 -7 -15 8 -4 19 -3 28 4
12 10 13 5 7 -38 -5 -28 -13 -54 -19 -58 -9 -6 -9 -10 0 -13 9 -4 9 -13 2 -30
-7 -19 -5 -31 7 -47 16 -21 16 -20 10 20 -3 23 -2 44 3 47 12 8 25 122 15 138
-5 7 -7 24 -5 37 2 15 -1 21 -8 17 -6 -4 -11 0 -11 8 0 20 17 29 24 14 6 -14
0 22 -10 60 -4 12 -2 22 4 22 6 0 13 -8 16 -17 2 -10 3 -2 2 17 -2 19 1 47 5
63 7 25 0 35 -14 20z"/>
<path d="M636 4355 c-3 -8 -1 -15 4 -15 13 0 22 18 11 24 -5 3 -11 -1 -15 -9z"/>
<path d="M470 4330 c0 -5 7 -10 15 -10 8 0 15 -7 15 -15 0 -8 4 -15 10 -15 5
0 6 8 3 18 -10 27 -43 44 -43 22z"/>
<path d="M810 4333 c0 -5 7 -16 14 -26 16 -20 30 -8 20 17 -6 16 -34 23 -34 9z"/>
<path d="M865 4330 c-3 -5 -1 -10 4 -10 6 0 11 5 11 10 0 6 -2 10 -4 10 -3 0
-8 -4 -11 -10z"/>
<path d="M1326 4323 c-6 -14 -5 -15 5 -6 7 7 10 15 7 18 -3 3 -9 -2 -12 -12z"/>
<path d="M640 4300 c0 -5 7 -10 16 -10 8 0 12 5 9 10 -3 6 -10 10 -16 10 -5 0
-9 -4 -9 -10z"/>
<path d="M1130 4290 c-8 -5 -10 -10 -5 -10 6 0 17 5 25 10 8 5 11 10 5 10 -5
0 -17 -5 -25 -10z"/>
<path d="M432 4281 c4 -13 18 -16 19 -4 0 4 -5 9 -11 12 -7 2 -11 -2 -8 -8z"/>
<path d="M670 4260 c0 -5 5 -10 10 -10 6 0 10 5 10 10 0 6 -4 10 -10 10 -5 0
-10 -4 -10 -10z"/>
<path d="M1126 4249 c-13 -16 -13 -18 7 -17 24 2 47 16 47 29 0 14 -39 5 -54
-12z"/>
<path d="M850 4250 c0 -5 5 -10 10 -10 6 0 10 5 10 10 0 6 -4 10 -10 10 -5 0
-10 -4 -10 -10z"/>
<path d="M410 4231 c0 -6 5 -13 10 -16 6 -3 10 1 10 9 0 9 -4 16 -10 16 -5 0
-10 -4 -10 -9z"/>
<path d="M560 4229 c0 -5 5 -7 10 -4 6 3 10 8 10 11 0 2 -4 4 -10 4 -5 0 -10
-5 -10 -11z"/>
<path d="M450 4210 c0 -5 5 -10 10 -10 6 0 10 5 10 10 0 6 -4 10 -10 10 -5 0
-10 -4 -10 -10z"/>
<path d="M1165 4200 c3 -5 8 -10 11 -10 2 0 4 5 4 10 0 6 -5 10 -11 10 -5 0
-7 -4 -4 -10z"/>
<path d="M310 4179 c0 -9 -7 -20 -16 -23 -8 -3 -13 -2 -9 3 3 5 -7 6 -22 2
-35 -9 -31 -27 5 -24 18 2 23 0 13 -6 -9 -6 -10 -11 -2 -15 6 -4 18 0 27 8 8
9 20 16 25 16 13 0 11 13 -6 36 -12 16 -14 17 -15 3z"/>
<path d="M400 4136 c0 -9 5 -16 10 -16 6 0 10 4 10 9 0 6 -4 13 -10 16 -5 3
-10 -1 -10 -9z"/>
<path d="M444 4135 c-9 -22 1 -29 15 -11 8 10 9 16 1 21 -5 3 -13 -1 -16 -10z"/>
<path d="M1122 4138 c6 -18 28 -21 28 -4 0 9 -7 16 -16 16 -9 0 -14 -5 -12
-12z"/>
<path d="M610 4130 c0 -5 5 -10 10 -10 6 0 10 5 10 10 0 6 -4 10 -10 10 -5 0
-10 -4 -10 -10z"/>
<path d="M480 4116 c0 -16 18 -31 27 -22 3 3 -2 12 -11 21 -14 14 -16 14 -16
1z"/>
<path d="M1311 4114 c0 -11 3 -14 6 -6 3 7 2 16 -1 19 -3 4 -6 -2 -5 -13z"/>
<path d="M427 4094 c-8 -8 1 -24 14 -24 5 0 9 7 9 15 0 15 -12 20 -23 9z"/>
<path d="M491 4067 c-9 -12 -8 -16 3 -20 19 -7 32 11 19 24 -6 6 -14 5 -22 -4z"/>
<path d="M810 4073 c0 -19 26 -73 37 -77 18 -7 16 9 -2 28 -8 8 -15 24 -15 35
0 12 -4 21 -10 21 -5 0 -10 -3 -10 -7z"/>
<path d="M1026 4050 c-8 -43 -8 -50 4 -50 19 0 29 35 16 59 l-13 23 -7 -32z"/>
<path d="M270 4061 c0 -5 5 -13 10 -16 6 -3 10 -2 10 4 0 5 -4 13 -10 16 -5 3
-10 2 -10 -4z"/>
<path d="M782 4051 c2 -7 7 -12 11 -12 12 1 9 15 -3 20 -7 2 -11 -2 -8 -8z"/>
<path d="M657 4034 c-10 -10 12 -44 28 -44 8 0 15 4 15 8 0 13 -36 43 -43 36z"/>
<path d="M735 4031 c-6 -11 9 -23 19 -14 9 9 7 23 -3 23 -6 0 -12 -4 -16 -9z"/>
<path d="M546 4015 c-19 -14 -19 -15 7 -15 17 0 27 5 27 15 0 19 -9 19 -34 0z"/>
<path d="M223 3998 c-6 -11 39 -9 57 2 11 7 6 9 -18 7 -19 -1 -36 -5 -39 -9z"/>
<path d="M755 3990 c3 -5 8 -10 11 -10 2 0 4 5 4 10 0 6 -5 10 -11 10 -5 0 -7
-4 -4 -10z"/>
<path d="M1033 3992 c-11 -7 -16 -26 -14 -50 0 -7 4 -11 9 -9 4 3 5 -16 3 -41
-4 -42 -5 -44 -11 -17 l-6 30 -7 -25 c-4 -14 -7 -55 -7 -92 0 -59 2 -67 17
-61 11 4 12 8 5 11 -13 4 -15 57 -4 82 10 22 72 25 72 3 0 -9 3 -14 6 -10 3 3
3 24 -1 47 -7 41 -7 41 -31 25 -20 -13 -24 -13 -24 -1 0 16 18 32 45 39 19 5
19 5 -2 12 -29 9 -29 14 5 42 l27 22 -35 0 c-19 1 -40 -3 -47 -7z"/>
<path d="M557 3945 c-4 -8 -2 -17 3 -20 6 -4 10 0 10 9 0 8 6 17 13 19 7 4 6
6 -4 6 -9 1 -19 -6 -22 -14z"/>
<path d="M637 3940 c-6 -24 24 -28 42 -6 9 11 8 15 -5 20 -25 10 -31 7 -37
-14z"/>
<path d="M759 3960 c-1 -3 -3 -18 -5 -35 -2 -16 -11 -35 -20 -42 -16 -12 -10
-38 7 -27 5 3 7 10 4 15 -4 5 1 9 9 9 9 0 16 9 16 20 0 11 5 20 10 20 6 0 10
-9 10 -20 0 -11 6 -20 14 -20 8 0 17 -8 21 -17 7 -17 8 -16 15 2 7 19 7 19 14
-2 4 -13 15 -23 24 -22 11 0 12 3 5 6 -8 3 -13 23 -13 49 0 47 -19 63 -21 17
0 -17 -3 -22 -6 -13 -9 21 -30 40 -45 40 -8 0 -19 5 -26 12 -7 7 -13 10 -13 8z"/>
<path d="M367 3930 c-4 -17 -2 -18 14 -9 11 5 17 14 14 20 -10 15 -22 10 -28
-11z"/>
<path d="M397 3883 c3 -21 12 -42 20 -46 20 -12 15 -29 -7 -22 -25 8 -25 0 0
-35 11 -15 16 -30 13 -34 -4 -4 1 -4 11 0 13 5 14 9 5 14 -7 5 -9 15 -4 26 10
24 7 47 -8 56 -7 4 -12 22 -12 39 0 18 -5 34 -12 36 -9 3 -10 -7 -6 -34z"/>
<path d="M4203 3905 c0 -8 4 -15 9 -15 4 0 8 4 8 9 0 6 -4 12 -8 15 -5 3 -9
-1 -9 -9z"/>
<path d="M4605 3910 c27 -12 35 -12 35 0 0 6 -12 10 -27 9 -25 0 -26 -1 -8 -9z"/>
<path d="M4668 3903 c6 -2 18 -2 25 0 6 3 1 5 -13 5 -14 0 -19 -2 -12 -5z"/>
<path d="M1130 3866 c0 -14 5 -28 10 -31 6 -4 10 7 10 24 0 17 -4 31 -10 31
-5 0 -10 -11 -10 -24z"/>
<path d="M341 3861 c-7 -5 -11 -13 -7 -19 3 -5 -1 -12 -9 -16 -17 -6 -21 -46
-4 -46 11 0 42 66 37 81 -2 5 -9 5 -17 0z"/>
<path d="M4328 3837 c-7 -7 -21 -16 -30 -20 -18 -6 -25 -37 -10 -37 13 0 48
33 55 53 8 20 3 22 -15 4z"/>
<path d="M170 3831 c0 -6 5 -13 10 -16 6 -3 10 1 10 9 0 9 -4 16 -10 16 -5 0
-10 -4 -10 -9z"/>
<path d="M812 3815 c0 -16 2 -22 5 -12 2 9 2 23 0 30 -3 6 -5 -1 -5 -18z"/>
<path d="M526 3821 c-4 -7 -5 -15 -2 -18 9 -9 19 4 14 18 -4 11 -6 11 -12 0z"/>
<path d="M652 3806 c-17 -8 -21 -17 -17 -34 3 -12 -1 -35 -10 -52 -19 -37 -19
-40 3 -40 13 0 18 7 18 21 -1 27 20 36 26 12 3 -10 4 -21 4 -24 -1 -3 5 -13
13 -22 9 -11 10 -17 2 -17 -6 0 -11 -7 -11 -15 0 -19 14 -19 30 -1 6 8 17 13
25 10 10 -4 13 7 12 44 -1 40 -4 47 -14 36 -7 -7 -13 -21 -13 -31 0 -12 -8 -6
-26 20 -31 46 -29 82 3 81 18 0 20 2 12 13 -13 15 -25 15 -57 -1z"/>
<path d="M831 3797 c-15 -37 -15 -36 17 -33 24 3 41 27 17 25 -5 0 -12 8 -16
18 -6 15 -8 14 -18 -10z"/>
<path d="M257 3801 c1 -2 -4 -16 -13 -32 -12 -24 -21 -29 -52 -30 -20 -1 -41
-1 -45 0 -5 1 -7 -4 -5 -10 4 -13 98 -19 98 -6 0 4 7 7 16 7 11 0 15 6 11 20
-4 17 -2 18 14 9 11 -5 17 -14 14 -20 -4 -5 -2 -9 4 -9 19 0 24 23 7 32 -9 5
-24 17 -34 26 -9 9 -16 15 -15 13z"/>
<path d="M1030 3790 c0 -5 7 -7 15 -4 8 4 15 8 15 10 0 2 -7 4 -15 4 -8 0 -15
-4 -15 -10z"/>
<path d="M580 3775 c0 -9 5 -15 11 -13 6 2 11 8 11 13 0 5 -5 11 -11 13 -6 2
-11 -4 -11 -13z"/>
<path d="M701 3766 c-7 -8 -8 -17 -3 -20 6 -3 13 1 16 10 9 23 2 28 -13 10z"/>
<path d="M338 3753 c17 -7 15 -30 -3 -37 -22 -8 -19 -46 4 -46 14 0 17 6 14
24 -3 13 0 27 6 30 15 10 2 36 -18 35 -10 0 -11 -2 -3 -6z"/>
<path d="M814 3737 c-3 -9 -3 -21 1 -27 4 -6 -7 -15 -24 -21 -32 -11 -42 -29
-16 -29 9 0 15 -9 15 -22 0 -12 3 -18 7 -14 4 4 8 15 8 24 0 11 8 17 24 17 33
1 40 44 11 70 -17 16 -20 16 -26 2z"/>
<path d="M465 3730 c-3 -5 -1 -10 4 -10 6 0 11 5 11 10 0 6 -2 10 -4 10 -3 0
-8 -4 -11 -10z"/>
<path d="M573 3723 c-7 -3 -13 -12 -13 -21 0 -15 2 -15 17 1 18 18 16 27 -4
20z"/>
<path d="M1043 3711 c1 -14 9 -26 17 -28 10 -3 11 -2 4 4 -7 4 -14 17 -17 28
-5 16 -5 15 -4 -4z"/>
<path d="M4415 3710 c-4 -6 6 -10 22 -10 22 0 25 2 13 10 -19 12 -27 12 -35 0z"/>
<path d="M446 3701 c-3 -5 0 -14 8 -20 10 -9 15 -8 19 3 9 22 -15 37 -27 17z"/>
<path d="M992 3685 c0 -16 2 -22 5 -12 2 9 2 23 0 30 -3 6 -5 -1 -5 -18z"/>
<path d="M102 3688 c-13 -13 -16 -38 -4 -38 12 0 41 38 35 44 -9 9 -18 7 -31
-6z"/>
<path d="M187 3686 c-17 -13 -17 -14 0 -33 28 -30 77 -69 69 -55 -4 7 -3 19 4
27 7 9 8 15 0 20 -16 10 -12 23 10 30 11 3 20 11 20 17 0 7 -5 6 -14 -1 -10
-8 -16 -9 -21 -1 -9 14 -46 12 -68 -4z m28 -16 c-3 -5 -10 -10 -16 -10 -5 0
-9 5 -9 10 0 6 7 10 16 10 8 0 12 -4 9 -10z"/>
<path d="M410 3661 c0 -11 5 -23 10 -26 6 -4 10 5 10 19 0 14 -4 26 -10 26 -5
0 -10 -9 -10 -19z"/>
<path d="M1126 3665 c4 -8 8 -15 10 -15 2 0 4 7 4 15 0 8 -4 15 -10 15 -5 0
-7 -7 -4 -15z"/>
<path d="M136 3653 c-3 -3 -6 -17 -6 -31 0 -21 2 -22 15 -12 8 7 15 18 15 26
0 15 -15 26 -24 17z"/>
<path d="M610 3649 c0 -5 9 -9 20 -9 11 0 20 4 20 8 0 4 -9 8 -20 9 -11 1 -20
-2 -20 -8z"/>
<path d="M1029 3583 c-1 -43 -4 -67 -6 -53 -3 14 -9 29 -14 35 -12 12 -12 55
1 55 6 0 10 8 10 17 0 29 -35 -17 -38 -49 -1 -15 -6 -67 -12 -115 -14 -123
-13 -154 4 -147 10 4 12 -2 9 -20 -4 -18 -12 -26 -27 -26 -17 0 -18 -2 -6 -10
11 -7 20 -3 37 17 22 27 25 43 9 54 -13 10 -11 132 2 155 6 10 12 13 12 6 0
-9 5 -10 18 -3 14 7 17 19 15 48 -4 36 -3 37 11 19 15 -19 16 -18 16 12 0 22
-5 32 -15 32 -18 0 -20 21 -3 38 9 9 8 12 -5 12 -14 0 -17 -12 -18 -77z m-19
-53 c0 -5 -5 -10 -11 -10 -5 0 -7 5 -4 10 3 6 8 10 11 10 2 0 4 -4 4 -10z"/>
<path d="M1080 3651 c0 -6 5 -13 11 -17 6 -3 9 -14 6 -24 -3 -13 0 -16 14 -13
23 6 23 12 0 41 -20 23 -31 28 -31 13z"/>
<path d="M557 3635 c3 -8 9 -12 14 -9 12 7 11 11 -5 17 -10 4 -13 1 -9 -8z"/>
<path d="M306 3627 c-13 -9 -17 -20 -13 -32 6 -14 10 -15 22 -5 12 10 16 9 22
-5 4 -11 0 -22 -10 -30 -19 -13 -23 -45 -7 -45 6 0 17 15 25 33 11 26 11 35 0
47 -7 8 -15 23 -16 33 -4 16 -6 16 -23 4z"/>
<path d="M465 3630 c3 -5 8 -10 11 -10 2 0 4 5 4 10 0 6 -5 10 -11 10 -5 0 -7
-4 -4 -10z"/>
<path d="M830 3621 c0 -10 -7 -21 -15 -25 -12 -4 -14 -16 -10 -51 4 -35 3 -45
-8 -45 -18 0 -42 -28 -33 -37 4 -4 16 -2 26 5 17 10 20 10 20 -5 0 -9 -8 -25
-17 -35 -15 -17 -15 -20 -3 -28 11 -7 16 -5 18 5 2 8 9 15 16 15 10 0 12 18
10 70 -2 39 0 70 4 70 4 0 8 18 9 40 1 22 -2 40 -8 40 -5 0 -9 -9 -9 -19z"/>
<path d="M740 3593 c8 -4 20 -13 26 -21 8 -11 13 -12 18 -4 11 19 -3 32 -32
31 -16 0 -21 -3 -12 -6z"/>
<path d="M185 3583 c-33 -8 -37 -18 -17 -43 l18 -23 27 25 c43 41 33 56 -28
41z"/>
<path d="M570 3580 c0 -5 5 -10 11 -10 5 0 7 5 4 10 -3 6 -8 10 -11 10 -2 0
-4 -4 -4 -10z"/>
<path d="M635 3580 c4 -6 11 -8 16 -5 14 9 11 15 -7 15 -8 0 -12 -5 -9 -10z"/>
<path d="M710 3560 c-8 -5 -10 -10 -5 -10 6 0 17 5 25 10 8 5 11 10 5 10 -5 0
-17 -5 -25 -10z"/>
<path d="M493 3515 c0 -14 5 -25 13 -25 22 0 24 16 5 34 -18 16 -18 16 -18 -9z"/>
<path d="M737 3526 c-18 -14 -17 -15 3 -21 21 -7 50 9 50 26 0 14 -33 10 -53
-5z"/>
<path d="M418 3523 c-22 -5 -24 -33 -3 -33 8 0 15 6 15 14 0 8 6 17 13 19 15
7 -2 6 -25 0z"/>
<path d="M655 3511 c3 -5 1 -12 -5 -16 -14 -9 -12 -53 3 -58 9 -3 9 -7 0 -19
-14 -16 -8 -28 14 -28 7 0 13 9 13 19 0 11 4 22 9 25 11 7 -18 86 -31 86 -5 0
-7 -4 -3 -9z"/>
<path d="M150 3495 c7 -9 15 -13 17 -11 7 7 -7 26 -19 26 -6 0 -6 -6 2 -15z"/>
<path d="M346 3498 c-19 -11 -19 -11 0 -26 16 -12 16 -14 2 -9 -12 4 -18 1
-18 -8 0 -9 9 -12 28 -10 15 2 30 4 35 4 11 1 8 14 -11 38 -14 18 -21 20 -36
11z"/>
<path d="M580 3497 c0 -16 39 -67 44 -59 4 6 -5 23 -19 38 -14 15 -25 24 -25
21z"/>
<path d="M720 3465 c0 -14 2 -25 4 -25 2 0 6 11 8 25 3 14 1 25 -3 25 -5 0 -9
-11 -9 -25z"/>
<path d="M240 3459 c0 -7 -10 -9 -25 -7 -14 3 -28 1 -31 -3 -5 -9 8 -13 32
-10 5 0 20 -8 33 -20 28 -27 34 -21 19 19 -12 31 -28 43 -28 21z"/>
<path d="M419 3453 c-6 -34 -5 -52 2 -47 5 3 9 12 9 20 0 8 5 14 11 14 5 0 7
5 4 10 -7 12 -24 13 -26 3z"/>
<path d="M471 3444 c0 -11 3 -14 6 -6 3 7 2 16 -1 19 -3 4 -6 -2 -5 -13z"/>
<path d="M1005 3440 c-3 -5 -1 -10 4 -10 6 0 11 5 11 10 0 6 -2 10 -4 10 -3 0
-8 -4 -11 -10z"/>
<path d="M5036 3413 c7 -16 14 -33 14 -38 0 -6 9 -18 20 -28 22 -19 26 -37 8
-37 -6 0 -3 -6 8 -14 10 -8 20 -13 22 -11 2 1 -8 31 -22 66 -15 34 -26 68 -26
76 0 7 -9 13 -19 13 -18 0 -19 -2 -5 -27z"/>
<path d="M520 3420 c0 -5 5 -10 11 -10 5 0 7 5 4 10 -3 6 -8 10 -11 10 -2 0
-4 -4 -4 -10z"/>
<path d="M189 3411 c-16 -6 -18 -36 -3 -49 4 -4 4 1 1 11 -4 9 -2 17 3 17 5 0
10 -8 12 -17 3 -13 6 -9 10 10 6 31 1 37 -23 28z"/>
<path d="M1007 3404 c-16 -16 -7 -44 14 -44 16 0 19 3 12 13 -6 6 -12 18 -14
25 -3 7 -8 10 -12 6z"/>
<path d="M313 3389 c-6 -6 -8 -19 -6 -30 4 -15 8 -17 19 -8 16 13 18 35 6 43
-5 3 -13 1 -19 -5z"/>
<path d="M801 3374 c-19 -10 -20 -13 -7 -16 15 -3 15 -5 -3 -25 -26 -27 -26
-29 -2 -36 14 -3 23 3 31 23 6 16 10 37 8 47 -3 16 -6 17 -27 7z"/>
<path d="M748 3363 c7 -3 16 -2 19 1 4 3 -2 6 -13 5 -11 0 -14 -3 -6 -6z"/>
<path d="M651 3346 c-9 -11 -7 -15 8 -19 30 -7 48 9 23 22 -15 8 -23 7 -31 -3z"/>
<path d="M4241 3344 c0 -11 3 -14 6 -6 3 7 2 16 -1 19 -3 4 -6 -2 -5 -13z"/>
<path d="M585 3340 c-3 -5 1 -10 10 -10 9 0 13 5 10 10 -3 6 -8 10 -10 10 -2
0 -7 -4 -10 -10z"/>
<path d="M220 3320 c-11 -11 -26 -20 -33 -20 -7 0 -18 -5 -25 -12 -9 -9 -12
-7 -12 9 0 11 -7 24 -16 27 -13 5 -15 1 -10 -17 3 -14 -1 -33 -10 -46 -19 -27
-8 -44 11 -17 22 29 42 14 39 -30 -4 -40 17 -74 43 -74 7 0 16 -7 19 -15 4 -8
10 -15 15 -15 5 0 -7 23 -27 50 -20 28 -34 54 -31 57 4 3 23 7 43 9 41 4 60
16 50 33 -10 16 -43 13 -50 -4 -3 -8 -10 -15 -16 -15 -16 0 -11 26 9 44 15 13
20 14 24 4 3 -7 6 2 6 20 1 37 -2 39 -29 12z"/>
<path d="M374 3316 c-3 -8 1 -24 9 -36 13 -19 14 -19 15 10 1 33 -15 50 -24
26z"/>
<path d="M740 3310 c-1 -3 -4 -17 -6 -32 -3 -26 -1 -28 37 -28 28 0 39 4 39
15 0 8 -3 14 -7 14 -28 -5 -52 4 -56 19 -3 9 -6 15 -7 12z"/>
<path d="M575 3280 c-8 -13 5 -13 25 0 13 8 13 10 -2 10 -9 0 -20 -4 -23 -10z"/>
<path d="M616 3263 c-11 -11 -6 -23 9 -23 8 0 15 4 15 9 0 13 -16 22 -24 14z"/>
<path d="M670 3260 c0 -5 7 -10 16 -10 8 0 12 5 9 10 -3 6 -10 10 -16 10 -5 0
-9 -4 -9 -10z"/>
<path d="M953 3234 c-22 -23 -15 -34 17 -27 23 4 30 2 30 -10 0 -13 5 -12 23
6 17 17 19 24 9 30 -7 5 -20 6 -29 3 -8 -4 -21 -2 -27 3 -7 6 -16 4 -23 -5z"/>
<path d="M416 3213 c4 -15 8 -29 9 -30 1 -2 12 9 26 24 13 14 18 23 12 19 -7
-4 -22 -2 -33 4 -19 10 -20 9 -14 -17z"/>
<path d="M6240 3230 c0 -5 5 -10 10 -10 6 0 10 5 10 10 0 6 -4 10 -10 10 -5 0
-10 -4 -10 -10z"/>
<path d="M2320 3208 c0 -9 5 -20 10 -23 13 -8 13 5 0 25 -8 13 -10 13 -10 -2z"/>
<path d="M4340 3210 c0 -5 9 -10 21 -10 11 0 17 5 14 10 -3 6 -13 10 -21 10
-8 0 -14 -4 -14 -10z"/>
<path d="M5790 3210 c0 -5 5 -10 10 -10 6 0 10 5 10 10 0 6 -4 10 -10 10 -5 0
-10 -4 -10 -10z"/>
<path d="M6205 3200 c-3 -5 -1 -10 4 -10 6 0 11 5 11 10 0 6 -2 10 -4 10 -3 0
-8 -4 -11 -10z"/>
<path d="M788 3193 c0 -5 -1 -15 -2 -23 -1 -9 -13 -16 -28 -18 -27 -3 -28 -6
-28 -58 l0 -56 -49 4 c-46 4 -49 3 -40 -14 8 -15 14 -16 30 -7 12 6 23 8 26 5
3 -3 14 -1 24 5 16 8 19 6 19 -11 0 -11 7 -20 15 -20 8 0 15 -9 15 -20 0 -11
5 -20 11 -20 6 0 8 7 5 16 -3 9 -3 21 1 27 5 7 8 39 9 72 0 33 4 75 8 93 5 21
4 32 -3 32 -6 0 -12 -3 -13 -7z m-6 -121 c5 -52 1 -64 -12 -42 -9 13 -10 13
-10 0 -1 -33 -20 15 -20 50 0 28 4 36 19 37 16 1 20 -7 23 -45z"/>
<path d="M5140 3190 c0 -5 5 -10 11 -10 5 0 7 5 4 10 -3 6 -8 10 -11 10 -2 0
-4 -4 -4 -10z"/>
<path d="M6496 3185 c-11 -30 -6 -40 11 -22 12 12 14 20 6 28 -7 7 -12 6 -17
-6z"/>
<path d="M281 3181 c-8 -5 -10 -14 -6 -21 6 -9 10 -8 17 4 12 21 7 28 -11 17z"/>
<path d="M746 3181 c-4 -5 -2 -12 3 -15 5 -4 12 -2 15 3 4 5 2 12 -3 15 -5 4
-12 2 -15 -3z"/>
<path d="M944 3176 c-3 -9 -4 -29 -1 -45 3 -15 2 -32 -3 -37 -11 -11 -17 -81
-7 -90 4 -4 7 -2 7 5 0 7 4 10 9 7 4 -3 17 2 27 10 18 15 18 15 -8 11 -32 -5
-32 -6 -14 52 14 47 30 62 39 37 4 -10 1 -13 -9 -9 -8 3 -14 -1 -14 -11 0 -18
17 -21 39 -7 11 7 12 14 0 39 -7 17 -17 28 -23 25 -5 -3 -15 2 -22 12 -12 17
-14 17 -20 1z"/>
<path d="M360 3170 c0 -5 5 -10 10 -10 6 0 10 5 10 10 0 6 -4 10 -10 10 -5 0
-10 -4 -10 -10z"/>
<path d="M5804 3155 c-6 -24 -34 -36 -34 -15 0 5 -6 8 -12 6 -7 -3 -32 -7 -54
-10 -36 -5 -42 -3 -47 15 -7 25 -27 16 -27 -12 0 -22 -11 -24 -28 -7 -12 12
-12 10 -17 -82 -1 -14 6 -28 14 -32 11 -4 6 -7 -14 -8 -26 -1 -27 -3 -10 -10
19 -8 19 -8 -4 -17 -53 -21 3 -20 178 2 104 14 187 29 191 36 5 7 9 8 11 1 4
-11 58 -6 219 19 36 5 94 12 130 15 110 9 137 19 142 54 5 35 -11 63 -32 58
-25 -5 -31 -23 -9 -28 11 -3 19 -9 19 -15 -1 -5 -6 -9 -10 -8 -5 2 -12 -6 -15
-17 -4 -11 -11 -20 -17 -20 -6 0 -6 6 2 15 14 16 9 19 -45 28 -33 6 -79 -14
-88 -38 -4 -8 -13 -15 -22 -15 -22 0 -18 17 5 23 11 3 20 10 20 16 0 14 -11
14 -45 1 -17 -7 -24 -7 -20 0 3 6 -1 10 -10 10 -12 0 -14 6 -9 26 7 26 6 27
-32 19 -21 -4 -43 -12 -47 -18 -5 -7 -6 -2 -2 11 5 19 2 22 -19 22 -16 0 -24
-5 -21 -12 3 -7 -10 -21 -27 -31 -18 -11 -30 -16 -26 -12 3 4 -3 16 -13 26
-20 20 -20 20 -38 -2 -15 -19 -20 -20 -42 -8 -13 7 -32 12 -43 10 -10 -1 -15
2 -12 7 3 6 -1 13 -10 16 -23 9 -23 8 -30 -19z m324 -53 c2 -13 -4 -25 -17
-32 -25 -13 -27 -5 -6 17 13 12 13 18 3 31 -11 13 -10 14 2 10 8 -2 16 -14 18
-26z m-198 8 c0 -5 7 -10 15 -10 8 0 15 -4 15 -10 0 -13 -17 -13 -25 0 -4 6
-11 8 -16 5 -5 -4 -9 -2 -9 3 0 6 -9 8 -20 5 -11 -3 -20 0 -20 6 0 6 14 11 30
11 17 0 30 -4 30 -10z m390 -20 c0 -5 -7 -10 -15 -10 -8 0 -15 5 -15 10 0 6 7
10 15 10 8 0 15 -4 15 -10z m-250 -14 c0 -8 -6 -16 -14 -19 -10 -4 -12 0 -9
14 6 22 23 26 23 5z m-325 -6 c3 -6 -1 -13 -10 -16 -19 -8 -30 0 -20 15 8 14
22 14 30 1z"/>
<path d="M6254 3145 c-2 -30 11 -33 26 -6 14 27 13 31 -7 31 -12 0 -18 -8 -19
-25z"/>
<path d="M7048 3163 c6 -2 18 -2 25 0 6 3 1 5 -13 5 -14 0 -19 -2 -12 -5z"/>
<path d="M390 3144 c0 -9 7 -14 17 -12 25 5 28 28 4 28 -12 0 -21 -6 -21 -16z"/>
<path d="M6978 3153 c6 -2 18 -2 25 0 6 3 1 5 -13 5 -14 0 -19 -2 -12 -5z"/>
<path d="M450 3139 c0 -5 5 -7 10 -4 6 3 10 8 10 11 0 2 -4 4 -10 4 -5 0 -10
-5 -10 -11z"/>
<path d="M6868 3143 c17 -2 47 -2 65 0 17 2 3 4 -33 4 -36 0 -50 -2 -32 -4z"/>
<path d="M6694 3130 c-12 -5 -62 -10 -110 -12 -49 -2 -98 -9 -109 -15 -18 -10
-16 -12 17 -18 21 -4 45 -2 56 4 12 6 39 11 61 11 37 0 87 9 166 30 27 7 26 8
-15 8 -25 1 -55 -3 -66 -8z"/>
<path d="M350 3120 c-8 -5 -10 -10 -5 -10 6 0 17 5 25 10 8 5 11 10 5 10 -5 0
-17 -5 -25 -10z"/>
<path d="M1051 3114 c0 -11 3 -14 6 -6 3 7 2 16 -1 19 -3 4 -6 -2 -5 -13z"/>
<path d="M400 3110 c0 -5 5 -10 10 -10 6 0 10 5 10 10 0 6 -4 10 -10 10 -5 0
-10 -4 -10 -10z"/>
<path d="M656 3111 c-4 -5 -2 -12 3 -15 5 -4 12 -2 15 3 4 5 2 12 -3 15 -5 4
-12 2 -15 -3z"/>
<path d="M316 3076 c7 -19 38 -22 32 -3 -3 6 -12 13 -21 15 -12 2 -15 -1 -11
-12z"/>
<path d="M162 3036 c9 -9 17 -11 25 -4 8 6 13 3 16 -9 4 -14 5 -13 6 5 1 18
-4 22 -29 22 -26 0 -29 -2 -18 -14z"/>
<path d="M5175 3031 c-2 -4 3 -15 11 -26 8 -10 14 -13 14 -6 0 7 4 10 8 7 5
-3 7 -18 4 -34 -2 -17 2 -33 11 -41 13 -10 18 -9 27 10 11 19 10 21 -4 16 -8
-3 -18 -1 -22 5 -4 7 -3 8 4 4 16 -10 15 34 -1 55 -12 15 -44 22 -52 10z"/>
<path d="M170 2991 c0 -12 5 -21 10 -21 6 0 10 6 10 14 0 8 -4 18 -10 21 -5 3
-10 -3 -10 -14z"/>
<path d="M375 3000 c3 -5 8 -10 11 -10 2 0 4 5 4 10 0 6 -5 10 -11 10 -5 0 -7
-4 -4 -10z"/>
<path d="M515 2999 c-9 -14 -2 -20 14 -10 8 6 9 11 3 15 -6 3 -14 1 -17 -5z"/>
<path d="M246 2991 c-4 -7 -5 -15 -2 -18 9 -9 19 4 14 18 -4 11 -6 11 -12 0z"/>
<path d="M575 2980 c-11 -17 4 -28 31 -22 26 5 26 6 9 18 -22 17 -32 17 -40 4z"/>
<path d="M731 2978 c-1 -10 6 -18 14 -18 8 0 15 5 15 11 0 5 -4 8 -9 5 -5 -4
-12 0 -14 6 -3 8 -6 6 -6 -4z"/>
<path d="M932 2970 c0 -14 2 -19 5 -12 2 6 2 18 0 25 -3 6 -5 1 -5 -13z"/>
<path d="M393 2963 c-23 -9 -14 -38 17 -56 26 -16 30 -16 30 -3 0 9 -7 16 -16
16 -12 0 -15 6 -10 25 6 25 3 28 -21 18z"/>
<path d="M448 2952 c5 -15 52 -36 61 -27 3 3 1 13 -5 22 -13 20 -64 25 -56 5z"/>
<path d="M331 2924 c0 -11 3 -14 6 -6 3 7 2 16 -1 19 -3 4 -6 -2 -5 -13z"/>
<path d="M50 2911 c0 -10 9 -21 20 -24 22 -6 27 12 8 31 -17 17 -28 15 -28 -7z"/>
<path d="M734 2914 c-2 -8 -6 -21 -9 -30 -3 -8 -1 -13 3 -10 4 2 7 -13 7 -34
0 -23 -4 -36 -10 -32 -5 3 -1 -4 9 -16 11 -12 16 -23 13 -23 -4 -1 -10 -2 -14
-3 -15 -3 -33 -17 -33 -27 0 -6 5 -7 10 -4 18 11 23 -24 6 -40 -15 -16 -23
-55 -10 -55 26 0 59 87 50 135 -4 19 -2 36 4 40 5 3 10 11 10 17 0 7 -6 6 -15
-2 -12 -10 -15 -10 -15 4 0 9 6 16 14 16 15 0 26 21 26 50 0 22 -39 35 -46 14z"/>
<path d="M914 2895 c-6 -23 0 -45 10 -34 10 12 15 59 6 59 -5 0 -12 -11 -16
-25z"/>
<path d="M12 2868 c-7 -7 -12 -19 -12 -27 0 -11 3 -12 8 -4 5 8 13 9 22 3 12
-7 10 -12 -9 -29 -22 -19 -27 -61 -6 -62 16 -1 39 74 31 104 -7 30 -16 33 -34
15z"/>
<path d="M432 2868 c-14 -14 -16 -42 -3 -34 7 5 23 46 17 46 -1 0 -7 -5 -14
-12z"/>
<path d="M1050 2865 c0 -8 2 -15 4 -15 2 0 6 7 10 15 3 8 1 15 -4 15 -6 0 -10
-7 -10 -15z"/>
<path d="M5084 2868 c-10 -16 -5 -161 6 -172 16 -16 56 34 63 80 10 60 -4 98
-36 101 -15 1 -29 -3 -33 -9z"/>
<path d="M940 2860 c0 -5 5 -10 11 -10 5 0 7 5 4 10 -3 6 -8 10 -11 10 -2 0
-4 -4 -4 -10z"/>
<path d="M107 2853 c-14 -13 -6 -23 19 -23 22 0 25 2 14 15 -14 16 -23 19 -33
8z"/>
<path d="M913 2833 c-14 -5 -18 -43 -5 -43 5 0 14 11 20 25 11 25 9 28 -15 18z"/>
<path d="M1000 2824 c0 -8 5 -12 10 -9 6 4 8 11 5 16 -9 14 -15 11 -15 -7z"/>
<path d="M200 2822 c0 -14 -93 -22 -102 -9 -5 8 -8 6 -8 -5 0 -14 11 -16 80
-12 59 3 80 0 80 -9 0 -6 11 -13 25 -13 47 -3 25 33 -25 41 -8 1 -23 6 -32 10
-10 4 -18 3 -18 -3z"/>
<path d="M502 2813 c2 -10 12 -19 23 -20 11 -2 14 0 8 3 -7 3 -13 12 -13 20 0
8 -5 14 -11 14 -6 0 -9 -8 -7 -17z"/>
<path d="M950 2811 c0 -6 4 -13 10 -16 6 -3 7 1 4 9 -7 18 -14 21 -14 7z"/>
<path d="M650 2781 c-9 -18 -8 -20 9 -13 22 8 28 25 12 30 -5 2 -15 -6 -21
-17z"/>
<path d="M437 2769 c-4 -16 -11 -19 -26 -14 -12 4 -21 2 -21 -4 0 -10 6 -12
43 -15 6 -1 12 4 12 11 0 6 3 15 8 19 10 10 9 24 -2 24 -5 0 -11 -9 -14 -21z"/>
<path d="M199 2773 c-1 -5 0 -18 1 -30 2 -31 -16 -29 -24 2 -5 20 -13 25 -38
25 l-31 0 20 -22 c11 -13 18 -29 16 -35 -3 -8 5 -13 20 -13 27 0 42 -31 24
-49 -8 -8 -7 -11 5 -11 9 0 18 10 21 21 5 18 11 21 36 16 40 -8 40 9 1 18 -24
5 -30 11 -25 26 3 10 8 28 11 39 4 15 1 20 -15 20 -12 0 -21 -3 -22 -7z"/>
<path d="M899 2746 c-13 -27 -4 -50 10 -27 5 7 14 10 20 7 15 -10 13 5 -4 28
-14 18 -15 18 -26 -8z"/>
<path d="M503 2743 c-20 -8 -15 -23 7 -23 18 0 19 -3 10 -21 -10 -18 -9 -20 6
-17 20 3 27 49 10 60 -12 9 -16 9 -33 1z"/>
<path d="M244 2728 c-3 -4 -2 -8 3 -8 4 0 19 -3 32 -7 17 -4 22 -2 19 7 -5 15
-46 21 -54 8z"/>
<path d="M345 2720 c-4 -6 -11 -8 -16 -5 -5 4 -9 -1 -9 -9 0 -20 10 -20 35 -3
11 9 14 16 7 21 -6 3 -13 2 -17 -4z"/>
<path d="M668 2713 c7 -3 16 -2 19 1 4 3 -2 6 -13 5 -11 0 -14 -3 -6 -6z"/>
<path d="M592 2684 c2 -12 14 -21 33 -24 26 -5 30 -9 27 -32 -2 -20 2 -28 20
-33 23 -8 38 -22 38 -39 0 -4 -6 -6 -14 -3 -19 7 -86 -11 -86 -23 0 -6 5 -10
10 -10 19 0 10 -21 -15 -32 -19 -9 -22 -14 -14 -25 14 -16 -3 -17 -19 -1 -14
14 -15 8 -13 -56 0 -39 11 -66 11 -29 0 11 12 28 26 38 19 12 25 23 21 41 -3
16 0 23 7 21 6 -2 12 -27 14 -56 2 -28 7 -49 12 -46 5 3 12 0 15 -6 4 -6 -2
-13 -14 -16 -12 -3 -21 -13 -21 -23 0 -10 -5 -20 -12 -22 -8 -3 -9 -11 -3 -24
8 -18 9 -18 12 3 5 24 33 21 33 -3 0 -8 6 -11 16 -7 12 4 15 0 12 -17 -2 -13
3 -25 11 -28 9 -3 11 1 7 16 -4 11 -2 23 4 27 6 3 8 10 6 14 -3 4 -1 23 3 43
6 23 5 40 -2 47 -8 8 -8 11 0 11 6 0 14 30 17 68 4 37 8 83 10 103 2 20 7 47
11 59 6 20 4 21 -17 15 -12 -4 -27 -14 -31 -21 -4 -8 -13 -14 -20 -14 -13 0
-16 48 -4 68 5 6 5 13 0 13 -4 1 -17 3 -28 5 -11 1 -31 6 -44 10 -19 6 -22 4
-19 -12z m121 -174 c6 -24 -9 -36 -27 -21 -7 6 -15 8 -18 5 -3 -3 -9 -1 -13 5
-3 7 2 11 14 11 12 0 21 5 21 10 0 18 18 10 23 -10z m-19 -46 c9 -23 8 -24
-14 -24 -19 0 -27 20 -13 33 11 11 20 8 27 -9z m-34 -145 c0 -6 -4 -7 -10 -4
-5 3 -10 11 -10 16 0 6 5 7 10 4 6 -3 10 -11 10 -16z"/>
<path d="M370 2680 c0 -5 5 -10 10 -10 6 0 10 5 10 10 0 6 -4 10 -10 10 -5 0
-10 -4 -10 -10z"/>
<path d="M110 2661 c0 -12 0 -24 0 -28 0 -5 6 -8 13 -8 6 0 12 11 12 24 0 13
-6 26 -12 29 -8 2 -13 -5 -13 -17z"/>
<path d="M300 2665 c8 -11 14 -21 15 -22 0 -1 9 6 20 14 18 14 18 15 1 9 -10
-3 -26 -1 -35 6 -14 12 -15 11 -1 -7z"/>
<path d="M425 2670 c3 -5 8 -10 11 -10 2 0 4 5 4 10 0 6 -5 10 -11 10 -5 0 -7
-4 -4 -10z"/>
<path d="M1040 2669 c0 -5 5 -7 10 -4 6 3 10 8 10 11 0 2 -4 4 -10 4 -5 0 -10
-5 -10 -11z"/>
<path d="M160 2629 c0 -9 10 -19 22 -22 28 -8 37 0 12 10 -10 3 -22 11 -26 17
-5 7 -8 5 -8 -5z"/>
<path d="M614 2624 c3 -9 6 -18 6 -20 0 -2 5 -4 10 -4 6 0 10 9 10 20 0 12 -7
20 -16 20 -11 0 -14 -5 -10 -16z"/>
<path d="M72 2619 c2 -7 10 -15 17 -17 8 -3 12 1 9 9 -2 7 -10 15 -17 17 -8 3
-12 -1 -9 -9z"/>
<path d="M385 2620 c-3 -5 1 -10 10 -10 9 0 13 5 10 10 -3 6 -8 10 -10 10 -2
0 -7 -4 -10 -10z"/>
<path d="M887 2624 c-4 -4 -7 -26 -7 -50 0 -37 2 -42 20 -37 11 3 20 10 20 15
0 6 -7 8 -15 4 -18 -7 -21 24 -3 42 8 8 9 15 2 22 -6 6 -13 7 -17 4z"/>
<path d="M970 2595 c0 -19 4 -35 8 -35 4 0 6 16 4 35 -2 19 -6 35 -8 35 -2 0
-4 -16 -4 -35z"/>
<path d="M561 2611 c-7 -5 -10 -14 -6 -20 5 -9 10 -9 21 0 26 22 14 38 -15 20z"/>
<path d="M4885 2573 c-3 -20 -10 -43 -14 -52 -13 -26 -31 -86 -31 -104 0 -9
-4 -17 -10 -17 -5 0 -7 -7 -4 -15 4 -8 2 -15 -4 -15 -16 0 -39 -43 -47 -87 -6
-38 -5 -42 14 -40 22 1 51 50 51 86 0 13 5 19 13 15 10 -3 13 3 9 25 -3 23 0
30 17 36 18 5 21 14 19 52 -1 34 3 48 16 55 13 8 15 13 5 24 -6 8 -8 14 -4 14
4 0 2 6 -4 14 -10 11 -8 17 9 29 21 14 21 15 -4 15 -20 0 -25 -7 -31 -35z"/>
<path d="M380 2584 c0 -8 5 -12 10 -9 6 3 10 10 10 16 0 5 -4 9 -10 9 -5 0
-10 -7 -10 -16z"/>
<path d="M520 2595 c0 -18 19 -40 26 -32 4 4 0 15 -9 24 -9 10 -17 13 -17 8z"/>
<path d="M225 2581 c-14 -6 -7 -8 28 -9 26 -1 47 3 47 8 0 12 -46 12 -75 1z"/>
<path d="M162 2540 c-12 -11 -28 -20 -37 -20 -8 0 -15 -5 -15 -10 0 -16 31
-25 39 -12 5 8 17 9 38 3 23 -7 33 -6 37 4 2 7 18 16 35 20 17 4 31 13 31 21
0 18 -50 8 -66 -14 -14 -19 -46 -8 -38 13 8 20 2 19 -24 -5z"/>
<path d="M970 2538 c0 -7 5 -20 10 -28 8 -12 10 -9 10 13 0 15 -4 27 -10 27
-5 0 -10 -6 -10 -12z"/>
<path d="M483 2525 c-17 -19 -16 -25 2 -25 8 0 15 2 15 4 0 2 3 11 6 20 8 20
-7 20 -23 1z"/>
<path d="M550 2530 c0 -5 7 -10 16 -10 8 0 12 5 9 10 -3 6 -10 10 -16 10 -5 0
-9 -4 -9 -10z"/>
<path d="M408 2523 c7 -3 16 -2 19 1 4 3 -2 6 -13 5 -11 0 -14 -3 -6 -6z"/>
<path d="M886 2517 c-11 -8 -16 -20 -13 -28 4 -10 6 -10 6 3 1 11 6 15 16 12
8 -4 23 -3 32 0 15 6 15 8 3 16 -20 13 -23 12 -44 -3z"/>
<path d="M145 2470 c4 -6 11 -8 16 -5 14 9 11 15 -7 15 -8 0 -12 -5 -9 -10z"/>
<path d="M280 2469 c0 -5 5 -7 10 -4 6 3 10 8 10 11 0 2 -4 4 -10 4 -5 0 -10
-5 -10 -11z"/>
<path d="M346 2465 c4 -8 8 -15 10 -15 2 0 4 7 4 15 0 8 -4 15 -10 15 -5 0 -7
-7 -4 -15z"/>
<path d="M240 2449 c0 -24 23 -21 28 4 2 10 -3 17 -12 17 -10 0 -16 -9 -16
-21z"/>
<path d="M426 2455 c-15 -8 -28 -10 -31 -4 -9 13 -35 -16 -35 -38 0 -12 -6 -7
-16 14 -9 18 -20 30 -25 28 -4 -3 -1 -18 7 -33 17 -34 19 -102 2 -102 -7 0 -2
-7 10 -16 13 -9 26 -13 30 -9 4 4 1 10 -5 12 -7 3 -13 12 -13 20 0 11 8 14 30
11 24 -4 30 -1 30 14 0 14 6 18 27 16 20 -2 28 2 31 17 4 17 3 18 -13 5 -14
-12 -19 -12 -22 -2 -6 17 -33 15 -33 -3 0 -8 -7 -15 -16 -15 -11 0 -14 8 -12
28 2 20 8 26 21 24 11 -2 25 5 32 15 13 17 14 17 28 -1 10 -13 16 -16 21 -7 4
6 12 8 18 5 6 -4 9 -1 6 6 -7 22 -43 29 -72 15z"/>
<path d="M982 2450 c0 -14 2 -19 5 -12 2 6 2 18 0 25 -3 6 -5 1 -5 -13z"/>
<path d="M867 2453 c-4 -3 -7 -18 -7 -33 0 -32 47 -61 62 -38 5 8 1 18 -12 27
-11 7 -20 22 -20 32 0 19 -11 25 -23 12z"/>
<path d="M520 2430 c0 -5 5 -10 10 -10 6 0 10 5 10 10 0 6 -4 10 -10 10 -5 0
-10 -4 -10 -10z"/>
<path d="M499 2393 c-1 -5 -1 -16 0 -25 2 -11 -5 -18 -15 -18 -12 0 -15 -3 -8
-10 23 -23 66 22 49 50 -7 12 -24 13 -26 3z"/>
<path d="M867 2356 c-4 -9 -2 -16 3 -16 6 0 10 -9 10 -20 0 -13 -7 -20 -20
-20 -11 0 -20 -7 -20 -15 0 -8 7 -15 15 -15 10 0 15 -11 16 -32 0 -29 1 -30 9
-11 5 12 16 26 26 31 16 9 15 11 -4 21 -18 10 -20 15 -11 38 7 20 6 30 -4 41
-12 12 -15 11 -20 -2z"/>
<path d="M580 2335 c-7 -8 -19 -15 -26 -15 -8 0 -14 -7 -14 -16 0 -14 2 -14
16 1 9 9 22 14 29 11 8 -3 16 2 19 9 8 21 -10 27 -24 10z"/>
<path d="M406 2311 c-9 -15 23 -36 35 -24 8 8 5 14 -9 22 -12 6 -23 7 -26 2z"/>
<path d="M475 2297 c-12 -10 -14 -16 -7 -21 7 -4 12 -2 12 3 0 6 5 10 11 9 6
-2 14 3 16 10 6 16 -9 15 -32 -1z"/>
<path d="M570 2276 c0 -9 5 -16 10 -16 6 0 10 4 10 9 0 6 -4 13 -10 16 -5 3
-10 -1 -10 -9z"/>
<path d="M310 2264 c0 -8 5 -12 10 -9 6 4 8 11 5 16 -9 14 -15 11 -15 -7z"/>
<path d="M500 2260 c-1 -3 -4 -16 -6 -30 -3 -18 -2 -22 7 -13 6 6 9 19 6 29
-3 11 -6 17 -7 14z"/>
<path d="M593 2243 c-7 -2 -13 -11 -13 -19 0 -8 -5 -14 -12 -14 -6 0 -9 -3 -5
-6 3 -4 20 -2 36 4 19 7 33 7 36 1 7 -11 45 -12 45 -1 0 4 -4 13 -9 21 -8 12
-12 12 -25 2 -13 -11 -17 -11 -22 3 -6 17 -10 18 -31 9z"/>
<path d="M841 2198 c1 -42 3 -48 9 -28 12 36 12 80 0 80 -6 0 -10 -24 -9 -52z"/>
<path d="M4438 2243 c7 -3 16 -2 19 1 4 3 -2 6 -13 5 -11 0 -14 -3 -6 -6z"/>
<path d="M380 2224 c0 -11 6 -14 23 -9 38 12 43 25 9 25 -22 0 -32 -5 -32 -16z"/>
<path d="M4745 2220 c-3 -5 1 -10 10 -10 9 0 13 5 10 10 -3 6 -8 10 -10 10 -2
0 -7 -4 -10 -10z"/>
<path d="M871 2154 c0 -11 3 -14 6 -6 3 7 2 16 -1 19 -3 4 -6 -2 -5 -13z"/>
<path d="M261 2124 c-7 -8 -10 -18 -7 -21 8 -9 56 14 56 27 0 15 -33 11 -49
-6z"/>
<path d="M967 2123 c-3 -5 -1 -17 4 -28 4 -11 8 -15 8 -8 1 6 4 18 7 27 6 16
-11 23 -19 9z"/>
<path d="M835 2092 c-3 -16 -8 -53 -10 -83 -2 -30 -8 -81 -13 -114 -6 -33 -13
-87 -16 -120 l-7 -60 27 40 c15 22 31 42 35 45 4 3 11 18 14 33 6 21 4 27 -8
27 -10 0 -17 -11 -19 -27 -2 -14 -9 -29 -17 -31 -11 -4 -12 2 -6 24 4 16 10
47 12 68 4 46 10 56 23 36 7 -11 10 -8 10 13 0 15 -5 27 -10 27 -6 0 -9 24 -8
59 2 44 6 57 17 53 8 -3 12 1 10 13 -6 30 -27 28 -34 -3z"/>
<path d="M4505 2110 c-3 -5 -1 -10 4 -10 6 0 11 5 11 10 0 6 -2 10 -4 10 -3 0
-8 -4 -11 -10z"/>
<path d="M5170 2070 c-11 -11 -20 -30 -20 -43 0 -25 45 -97 60 -97 6 0 10 -6
10 -14 0 -8 8 -21 18 -28 9 -7 25 -23 35 -35 19 -21 19 -22 -5 -16 -22 5 -23
5 -3 -10 11 -8 23 -13 27 -11 5 3 8 1 8 -5 0 -5 27 -38 60 -73 33 -35 60 -67
60 -71 0 -4 11 -20 25 -35 15 -15 36 -44 47 -64 12 -21 25 -38 28 -38 7 0 88
-100 104 -128 6 -10 1 -11 -17 -7 -14 4 -27 3 -30 -2 -3 -4 6 -41 19 -82 26
-80 34 -243 13 -256 -6 -4 -8 -13 -5 -20 2 -7 1 -16 -4 -21 -5 -5 -10 -22 -12
-39 l-3 -30 95 -2 c112 -3 223 -18 300 -41 30 -9 58 -15 62 -14 13 3 151 2
225 -2 42 -2 71 0 67 5 -3 5 0 9 5 9 6 0 16 -9 23 -19 9 -15 15 -17 25 -9 7 6
13 17 13 24 0 12 4 12 20 2 16 -10 24 -10 40 0 27 17 47 15 62 -6 18 -25 34
-33 52 -26 14 5 14 8 -1 22 -16 16 -14 17 23 22 46 7 66 2 57 -13 -4 -7 0 -8
13 -2 32 14 166 25 217 19 35 -4 53 -2 65 9 15 13 96 24 230 31 l22 1 0 293
c0 194 -3 292 -10 292 -6 0 -22 -7 -35 -16 -16 -11 -34 -14 -55 -9 -17 4 -30
2 -30 -3 0 -5 -46 -12 -102 -16 -57 -4 -141 -10 -188 -14 -120 -8 -225 -5
-249 7 -11 6 -35 11 -54 11 -22 0 -37 6 -41 15 -4 10 1 15 15 15 12 0 17 4 13
11 -3 6 -19 9 -35 7 -18 -3 -30 1 -34 10 -3 8 -12 12 -20 8 -8 -3 -36 11 -64
31 -44 33 -48 38 -33 50 15 11 15 12 1 13 -14 0 -30 10 -78 52 -11 9 -16 9
-19 0 -7 -23 -33 -12 -38 17 -5 24 -12 29 -52 37 -30 6 -50 16 -57 29 -6 12
-18 19 -30 17 -11 -1 -31 7 -43 19 l-23 21 -6 -21 c-7 -28 -37 -27 -56 3 -15
22 -99 76 -119 76 -5 0 -22 -15 -39 -32 -16 -18 -36 -40 -43 -48 -8 -8 -20
-27 -27 -42 -13 -30 -33 -36 -46 -14 -11 18 -105 127 -168 192 -27 28 -57 62
-66 75 -16 22 -16 23 -52 6 -34 -16 -39 -16 -61 -2 -13 9 -27 23 -30 31 -8 20
-33 17 -56 -6z m714 -377 c-12 -8 -20 -10 -22 -3 -2 5 -10 10 -18 10 -9 0 -13
4 -10 8 3 5 20 7 37 4 31 -4 31 -6 13 -19z m306 -71 c37 -20 105 -80 98 -87
-8 -8 -88 42 -88 55 0 6 -7 10 -15 10 -21 0 -107 68 -92 73 6 2 26 -5 42 -17
17 -12 41 -27 55 -34z"/>
<path d="M338 2073 c-22 -5 -24 -33 -3 -33 18 0 20 -36 3 -43 -8 -4 -7 -6 3
-6 19 -1 32 48 18 65 -5 6 -6 14 -2 17 3 4 4 6 2 6 -2 -1 -12 -3 -21 -6z"/>
<path d="M940 2034 c0 -3 7 -12 15 -20 13 -14 15 -13 15 5 0 12 -6 21 -15 21
-8 0 -15 -3 -15 -6z"/>
<path d="M280 2020 c0 -5 4 -10 10 -10 5 0 6 -8 3 -17 -6 -16 -5 -16 10 -4 13
10 15 17 6 27 -13 16 -29 18 -29 4z"/>
<path d="M880 1985 c0 -8 5 -15 10 -15 6 0 10 7 10 15 0 8 -4 15 -10 15 -5 0
-10 -7 -10 -15z"/>
<path d="M4871 1918 c1 -18 3 -25 6 -15 2 9 8 15 13 12 5 -3 11 -1 15 5 3 5
16 10 28 11 21 0 21 1 2 9 -11 5 -30 9 -42 9 -20 1 -23 -4 -22 -31z"/>
<path d="M880 1930 c0 -5 5 -10 10 -10 6 0 10 5 10 10 0 6 -4 10 -10 10 -5 0
-10 -4 -10 -10z"/>
<path d="M7165 1886 l-30 -24 19 -36 c30 -56 46 -47 46 24 0 33 -1 60 -2 60
-2 0 -16 -11 -33 -24z"/>
<path d="M895 1880 c-3 -5 1 -10 9 -10 9 0 16 5 16 10 0 6 -4 10 -9 10 -6 0
-13 -4 -16 -10z"/>
<path d="M905 1790 c3 -5 8 -10 11 -10 2 0 4 5 4 10 0 6 -5 10 -11 10 -5 0 -7
-4 -4 -10z"/>
<path d="M850 1749 c0 -5 5 -7 10 -4 6 3 10 8 10 11 0 2 -4 4 -10 4 -5 0 -10
-5 -10 -11z"/>
<path d="M890 1720 c0 -5 5 -10 10 -10 6 0 10 5 10 10 0 6 -4 10 -10 10 -5 0
-10 -4 -10 -10z"/>
<path d="M5225 1721 c4 -7 2 -17 -3 -24 -5 -7 -12 -24 -16 -39 -5 -21 -3 -28
9 -28 9 0 15 9 15 21 0 12 8 23 20 26 27 7 25 17 -6 38 -15 9 -23 12 -19 6z"/>
<path d="M785 1699 c-10 -14 -1 -21 19 -13 9 3 13 10 10 15 -7 12 -21 11 -29
-2z"/>
<path d="M775 1624 c-4 -29 -3 -50 4 -57 8 -8 11 -5 11 12 0 12 4 19 10 16 6
-3 13 1 16 10 6 14 8 14 25 -1 11 -10 22 -14 26 -11 3 4 12 2 20 -4 15 -13 17
-1 4 20 -5 8 -16 11 -30 6 -15 -4 -23 -1 -27 10 -5 12 -9 13 -20 4 -11 -9 -14
-6 -14 15 0 43 -17 29 -25 -20z"/>
<path d="M910 1649 c-10 -6 -11 -9 -2 -9 7 0 12 -14 12 -35 0 -24 -5 -35 -15
-35 -10 0 -15 -10 -15 -27 0 -47 29 -5 39 55 9 55 4 67 -19 51z"/>
<path d="M791 1533 c3 -20 -2 -33 -14 -33 -9 0 -13 -20 -15 -67 -1 -44 2 -63
8 -53 5 8 8 31 8 53 0 21 1 40 3 42 2 2 20 5 39 7 19 1 36 6 38 11 7 22 0 29
-27 25 -17 -2 -28 -1 -25 3 2 4 0 11 -6 14 -6 4 -10 3 -9 -2z"/>
<path d="M905 1490 c-3 -5 -1 -10 4 -10 6 0 11 5 11 10 0 6 -2 10 -4 10 -3 0
-8 -4 -11 -10z"/>
<path d="M796 1428 c-4 -18 -8 -44 -10 -58 -5 -36 -5 -37 -16 -20 -14 23 -19
9 -24 -75 -2 -44 -7 -99 -11 -122 -5 -31 -4 -46 7 -56 20 -20 74 -31 83 -17 5
7 0 10 -11 8 -41 -6 -95 64 -60 78 9 3 16 14 16 24 0 10 5 20 10 22 6 2 12 13
13 25 0 12 4 20 8 17 4 -2 9 27 11 64 3 37 1 69 -4 70 -4 2 -8 8 -8 13 0 6 8
6 19 -1 25 -13 34 1 21 34 -13 36 -36 33 -44 -6z m2 -121 c3 -13 -1 -15 -14
-10 -14 5 -16 3 -11 -11 4 -10 3 -15 -3 -11 -6 3 -10 17 -10 31 0 19 5 25 17
22 10 -2 19 -11 21 -21z m-18 -67 c0 -5 -4 -10 -10 -10 -5 0 -10 5 -10 10 0 6
5 10 10 10 6 0 10 -4 10 -10z"/>
<path d="M890 1435 c0 -8 2 -15 4 -15 2 0 6 7 10 15 3 8 1 15 -4 15 -6 0 -10
-7 -10 -15z"/>
<path d="M887 1397 c-3 -7 1 -24 9 -38 10 -17 13 -19 14 -7 0 9 -4 19 -10 23
-5 3 -7 12 -3 20 3 8 3 15 0 15 -3 0 -7 -6 -10 -13z"/>
<path d="M826 1351 c-4 -7 -5 -15 -2 -18 9 -9 19 4 14 18 -4 11 -6 11 -12 0z"/>
<path d="M1790 1349 c0 -5 5 -7 10 -4 6 3 10 8 10 11 0 2 -4 4 -10 4 -5 0 -10
-5 -10 -11z"/>
<path d="M4150 1351 c0 -6 5 -13 10 -16 6 -3 10 1 10 9 0 9 -4 16 -10 16 -5 0
-10 -4 -10 -9z"/>
<path d="M878 1322 c-23 -4 -23 -41 -2 -49 18 -7 44 20 44 46 0 13 -2 13 -9 2
-5 -7 -10 -9 -12 -4 -2 5 -12 7 -21 5z"/>
<path d="M1490 1266 c0 -9 7 -16 16 -16 9 0 14 5 12 12 -6 18 -28 21 -28 4z"/>
<path d="M833 1253 c-7 -2 -13 -10 -13 -18 0 -7 -10 -19 -22 -27 -14 -10 -19
-19 -13 -28 7 -11 10 -10 16 6 7 17 8 17 8 -3 1 -13 -5 -23 -13 -23 -7 0 -19
-7 -26 -15 -11 -13 -8 -15 21 -13 23 2 33 -1 32 -9 -2 -8 8 -13 27 -13 20 0
30 5 30 15 0 18 -26 20 -33 3 -2 -7 -8 4 -12 26 -5 24 -4 41 3 45 6 3 9 18 9
34 -1 15 -2 27 -2 26 0 0 -6 -3 -12 -6z"/>
<path d="M870 1190 c0 -5 5 -10 11 -10 5 0 7 5 4 10 -3 6 -8 10 -11 10 -2 0
-4 -4 -4 -10z"/>
<path d="M850 1090 c-12 -8 -12 -10 5 -9 11 0 29 4 40 9 18 8 18 9 -5 9 -14 0
-32 -4 -40 -9z"/>
<path d="M1420 1090 c0 -6 14 -10 30 -10 39 0 39 14 0 17 -17 1 -30 -2 -30 -7z"/>
<path d="M720 1066 c0 -19 4 -23 20 -19 11 3 20 9 20 14 0 4 -9 13 -20 19 -17
9 -20 8 -20 -14z"/>
<path d="M1185 1010 c3 -5 15 -10 26 -10 10 0 19 5 19 10 0 6 -12 10 -26 10
-14 0 -23 -4 -19 -10z"/>
<path d="M6600 890 c0 -5 5 -10 10 -10 6 0 10 5 10 10 0 6 -4 10 -10 10 -5 0
-10 -4 -10 -10z"/>
<path d="M6785 890 c3 -5 15 -10 26 -10 10 0 19 5 19 10 0 6 -12 10 -26 10
-14 0 -23 -4 -19 -10z"/>
<path d="M6074 872 c6 -10 90 -52 103 -52 13 0 -35 30 -73 46 -20 8 -33 11
-30 6z"/>
<path d="M6157 865 c3 -8 9 -12 14 -9 12 7 11 11 -5 17 -10 4 -13 1 -9 -8z"/>
<path d="M6275 870 c3 -5 10 -10 16 -10 5 0 9 5 9 10 0 6 -7 10 -16 10 -8 0
-12 -4 -9 -10z"/>
<path d="M6668 873 c7 -3 16 -2 19 1 4 3 -2 6 -13 5 -11 0 -14 -3 -6 -6z"/>
<path d="M6090 750 c-13 -8 -12 -10 3 -10 9 0 17 5 17 10 0 12 -1 12 -20 0z"/>
<path d="M5614 562 c4 -7 1 -12 -8 -12 -10 0 -16 -9 -16 -25 0 -23 4 -25 43
-26 23 -1 51 0 62 1 23 2 45 26 45 49 0 14 -1 14 -10 1 -7 -10 -13 -11 -17 -4
-5 5 -26 11 -47 12 -22 2 -44 6 -49 9 -6 3 -7 1 -3 -5z"/>
<path d="M5574 396 c-6 -6 -13 -20 -16 -31 -18 -60 -75 -215 -84 -226 -6 -8
-17 -30 -24 -49 -7 -19 -22 -48 -33 -63 l-19 -28 71 2 c68 3 89 13 55 26 -12
5 -10 9 11 23 26 17 19 40 -7 24 -10 -6 -10 -5 -1 7 6 8 14 31 18 52 4 21 13
41 20 43 7 3 15 26 19 51 3 26 12 54 20 62 8 9 17 33 21 54 7 35 4 39 -22 36
-4 0 -10 6 -13 14 -4 11 -8 12 -16 3z"/>
<path d="M4917 312 c-16 -18 -16 -19 13 -19 22 0 30 5 28 15 -5 23 -23 25 -41
4z"/>
<path d="M4918 273 c7 -3 16 -2 19 1 4 3 -2 6 -13 5 -11 0 -14 -3 -6 -6z"/>
<path d="M4868 228 c7 -7 12 -20 12 -30 0 -21 13 -23 29 -4 17 21 2 46 -27 46
-20 0 -23 -3 -14 -12z"/>
<path d="M4932 198 c5 -15 28 -18 29 -3 0 6 -7 12 -17 13 -10 3 -15 -1 -12
-10z"/>
<path d="M4810 91 c0 -17 -5 -31 -12 -31 -9 0 -9 -3 1 -12 10 -11 15 -10 25 5
16 21 15 59 -1 65 -9 2 -13 -7 -13 -27z"/>
<path d="M4758 3 c6 -2 18 -2 25 0 6 3 1 5 -13 5 -14 0 -19 -2 -12 -5z"/>
</g>
</svg>
